<svg  viewBox="0 0 61 26" fill="none" xmlns="http://www.w3.org/2000/svg">
<g clip-path="url(#clip0_1_20810)">
<path d="M28.8145 21.2443H27.0857V11.1679H28.8145V21.2443ZM27.9501 9.48855C27.345 9.48855 26.8264 8.98473 26.8264 8.39695C26.8264 7.80916 27.345 7.30534 27.9501 7.30534C28.5551 7.30534 29.0738 7.80916 29.0738 8.39695C29.0738 8.98473 28.5551 9.48855 27.9501 9.48855ZM38.4091 21.4962C33.8279 21.4962 30.889 18.3053 30.889 13.2672C30.889 8.22901 33.8279 5.03817 38.4091 5.03817C42.9903 5.03817 45.9292 8.22901 45.9292 13.2672C45.9292 18.3053 42.9903 21.4962 38.4091 21.4962ZM44.2869 13.2672C44.2869 9.0687 42.0395 6.38168 38.4091 6.38168C34.7787 6.38168 32.5313 9.0687 32.5313 13.2672C32.5313 17.4656 34.7787 20.0687 38.4091 20.0687C42.0395 20.0687 44.2869 17.4656 44.2869 13.2672ZM53.5358 21.4962C50.0782 21.4962 47.658 19.6489 47.4851 16.8779H49.041C49.2139 18.8092 51.0291 20.0687 53.6222 20.0687C56.1289 20.0687 57.8577 18.7252 57.8577 16.9618C57.8577 15.4504 56.8204 14.6107 54.3137 14.0229L52.2392 13.5191C49.2139 12.7634 47.8308 11.5038 47.8308 9.40458C47.8308 6.80153 50.2511 4.9542 53.4493 4.9542C56.6475 4.9542 58.9814 6.80153 59.0678 9.32061H57.6848C57.5984 7.55725 55.956 6.38168 53.6222 6.38168C51.3748 6.38168 49.646 7.64122 49.646 9.40458C49.646 10.7481 50.6833 11.5878 53.1036 12.1756L54.9188 12.5954C58.2034 13.4351 59.5864 14.6107 59.5864 16.8779C59.5 19.6489 57.2526 21.4962 53.5358 21.4962ZM20.1706 17.1298C19.8249 17.8855 19.3927 18.6412 18.9605 19.229C18.3554 20.1527 17.8368 20.7405 17.4046 21.0763C16.7996 21.6641 16.108 21.916 15.4165 21.916C14.8979 21.916 14.2928 21.7481 13.5149 21.4962C12.8234 21.2443 12.1319 21.0763 11.5268 21.0763C10.9218 21.0763 10.2303 21.2443 9.45231 21.4962C8.7608 21.7481 8.15574 21.916 7.63711 21.916C6.9456 21.916 6.2541 21.6641 5.56259 20.9924C5.1304 20.6565 4.61177 19.9847 3.92027 19.0611C3.22876 18.1374 2.6237 16.9618 2.19151 15.7023C1.75931 14.4427 1.5 13.0992 1.5 11.8397C1.5 10.3282 1.84575 9.0687 2.45082 8.06107C2.96945 7.22137 3.66095 6.54962 4.52534 6.0458C5.38972 5.54198 6.34054 5.29008 7.29136 5.29008C7.80998 5.29008 8.58793 5.45802 9.45231 5.79389C10.3167 6.12977 10.9218 6.29771 11.1811 6.29771C11.3539 6.29771 11.959 6.12977 13.0827 5.70992C14.12 5.37405 14.9844 5.20611 15.6759 5.29008C17.5775 5.45802 19.0469 6.12977 19.9978 7.47328C18.269 8.48092 17.4911 9.9084 17.4911 11.6718C17.4911 13.0992 18.0097 14.2748 19.0469 15.1985C19.4791 15.6183 19.9978 15.9542 20.6028 16.2061C20.43 16.458 20.2571 16.7939 20.1706 17.1298ZM15.7623 0.419847C15.7623 1.51145 15.3301 2.51908 14.5522 3.52672C13.6013 4.61832 12.3912 5.29008 11.0946 5.20611C11.0946 5.03817 11.0946 4.9542 11.0946 4.78626C11.0946 3.69466 11.5268 2.60305 12.3912 1.67939C12.8234 1.17557 13.342 0.839695 13.9471 0.503817C14.5522 0.167939 15.1572 0 15.7623 0C15.7623 0.167939 15.7623 0.251908 15.7623 0.419847Z" fill="white" fill-opacity="0.8"/>
</g>
<defs>
<clipPath id="clip0_1_20810">
<rect width="58" height="22" fill="white" transform="translate(1.5)"/>
</clipPath>
</defs>
</svg>
