<svg  viewBox="0 0 145 22" fill="none" xmlns="http://www.w3.org/2000/svg">
<path d="M87.4453 12.6109L91.2743 19.4617H93.7779L89.9489 12.4766L87.4453 12.6109Z" fill="white" fill-opacity="0.8"/>
<path d="M94.9609 5.49324H100.557V19.4634H102.913V5.49324H108.51V4.01562H94.9609V5.49324Z" fill="white" fill-opacity="0.8"/>
<path d="M41.7915 19.7336C45.326 19.7336 47.535 18.256 47.6823 15.9724C47.8296 13.6888 46.5041 12.4798 42.8224 11.1366C39.7298 10.0619 38.6989 9.12163 38.6989 7.77834C38.6989 6.30073 40.1716 5.36043 42.3806 5.36043C44.1478 5.36043 45.6205 5.62908 46.5041 6.03207L47.2405 4.68878C45.9151 4.15147 44.1478 3.88281 41.9388 3.88281C38.4043 3.88281 36.3426 5.62908 36.3426 7.91267C36.3426 10.1963 37.8153 11.4052 41.2025 12.6142C44.2951 13.6888 45.1787 14.3604 45.1787 15.8381C45.1787 17.3157 43.706 18.3903 41.0552 18.256C39.7298 18.256 37.9625 17.7187 36.9317 17.1813L36.1953 18.5246C37.0789 18.9276 38.8462 19.7336 41.7915 19.7336Z" fill="white" fill-opacity="0.8"/>
<path d="M66.8316 4.14844H63.1499L58.4373 17.9843L53.7247 4.14844H50.043V19.4619H51.8102V5.3574L56.6701 19.4619H59.7627L64.4753 5.3574V19.4619H64.7699L66.8316 14.2231V4.14844Z" fill="white" fill-opacity="0.8"/>
<path d="M92.1592 5.09025C91.1283 4.41861 89.6557 4.01562 87.7412 4.01562H81.7031V13.4186L84.0594 19.1948V5.49324H87.5939C90.392 5.49324 91.2756 6.7022 91.2756 8.44847C91.2756 10.3291 90.392 11.6724 87.1521 11.6724H84.7958V13.0156H88.6248C91.7174 13.0156 93.4846 10.8664 93.4846 8.5828C93.6319 6.97085 93.0428 5.7619 92.1592 5.09025Z" fill="white" fill-opacity="0.8"/>
<path d="M144 4.14844H141.496L136.489 17.1783L131.334 4.14844H128.684L134.722 19.4619H137.962L144 4.14844Z" fill="white" fill-opacity="0.8"/>
<path d="M112.926 5.3574H118.669V19.4619H121.762V5.3574H127.505V4.14844H112.926V5.3574Z" fill="white" fill-opacity="0.8"/>
<path d="M21.6162 13.5545H24.8561V16.241C24.267 16.5097 23.0889 16.7784 21.9107 16.7784C18.3763 16.7784 17.1981 15.1664 17.1981 11.8082C17.1981 8.58431 18.3763 6.83804 21.9107 6.83804C23.8252 6.83804 25.0034 7.37536 25.887 8.44999L28.2433 6.43506C26.7706 4.55446 24.1198 3.88281 21.7635 3.88281C16.3145 3.88281 13.3691 6.56939 13.3691 11.8082C13.3691 17.047 16.02 19.7336 21.7635 19.7336C24.4143 19.7336 26.9179 19.0619 28.3906 18.256V10.7336H21.6162V13.5545Z" fill="white" fill-opacity="0.8"/>
<path d="M4.82899 4.01562H1V19.4634H12.9288V16.5082H4.82899V4.01562Z" fill="white" fill-opacity="0.8"/>
<path d="M76.4039 9.5224L78.613 8.31345L76.1094 2L74.6367 5.08956L76.4039 9.5224Z" fill="#1999D6"/>
<path d="M78.6094 8.3125L76.4004 9.52146L77.4313 11.805L80.6712 13.5513L78.6094 8.3125Z" fill="#30BEC2"/>
<path d="M74.7812 13.6875L76.1067 14.6278L74.7812 15.4338L80.8193 19.8666L79.7884 17.3144L74.7812 13.6875Z" fill="#97C742"/>
<path d="M74.7794 13.6875L69.1832 17.4487L68.1523 19.8666L74.7794 15.4338L73.454 14.6278L74.7794 13.6875Z" fill="#F68524"/>
<path d="M74.7805 13.6875L73.4551 14.6278L74.7805 15.4338L76.1059 14.6278L74.7805 13.6875Z" fill="#9D7230"/>
<path d="M80.6716 13.551L77.4316 11.8047L79.7879 17.3122L83.1751 19.8644L80.6716 13.551Z" fill="#71C596"/>
<path d="M79.791 17.3125L80.8219 19.8647H83.1782L79.791 17.3125Z" fill="#38B24B"/>
<path d="M71.5412 12.3438L68.0067 14.3587L65.6504 19.8662L69.1848 17.4482L71.5412 12.3438Z" fill="#F15C2A"/>
<path d="M65.6504 19.8632H68.154L69.1848 17.4453L65.6504 19.8632Z" fill="#EF3B25"/>
<path d="M74.6337 5.08956L73.3082 2L70.8047 8.04479L72.8664 9.11942L74.6337 5.08956Z" fill="#6E449B"/>
<path d="M70.8059 8.04688L68.0078 14.3603L71.5423 12.3454L72.8677 9.1215L70.8059 8.04688Z" fill="#ED174F"/>
<path d="M76.1048 2H73.3066L74.6321 5.08956L76.1048 2Z" fill="#3C2E46"/>
</svg>
