<svg width="84" height="98" viewBox="0 0 84 98" fill="none" xmlns="http://www.w3.org/2000/svg">
<path d="M39.5852 31.7689C39.5852 31.7689 39.5584 31.5543 39.4779 31.152C39.4242 30.7764 39.3438 30.2131 39.2365 29.5425C39.0755 28.1476 38.9414 26.1894 38.9414 23.8288C38.9951 21.4682 39.2365 18.6784 39.9071 15.7008C40.5777 12.7501 41.8117 9.58471 43.8235 6.84857C44.8429 5.4805 46.05 4.27334 47.3644 3.254L48.3838 2.52975C48.7325 2.31515 49.0812 2.10052 49.43 1.91275C49.9665 1.59085 50.0201 1.59087 50.6103 1.34945C51.0931 1.13485 51.4955 1.02754 51.9783 0.920238C53.7756 0.491039 55.7606 0.812943 57.236 1.80547C58.7382 2.77116 59.5966 4.38066 59.7844 5.82921C59.9722 7.30458 59.5698 8.53853 59.1406 9.4774C58.6577 10.4163 58.1212 11.0869 57.6384 11.5966C57.1556 12.1062 56.7532 12.455 56.4581 12.6696C56.163 12.8842 56.0289 12.9915 56.0289 12.9915C55.7606 13.1792 55.4119 13.1256 55.2241 12.8842C55.0632 12.6696 55.0632 12.4013 55.2241 12.1867L55.251 12.1599C55.251 12.1599 55.3583 12.0258 55.5461 11.7307C55.7338 11.4624 56.0021 11.0601 56.2972 10.5504C56.5654 10.0407 56.8873 9.39694 57.0482 8.64584C57.236 7.92156 57.236 7.11681 56.9946 6.41936C56.7532 5.72191 56.2167 5.15858 55.5192 4.86351C54.8218 4.56843 53.9634 4.56843 53.105 4.86351C52.9172 4.94398 52.6489 5.0513 52.5148 5.13177C52.4612 5.1586 51.8979 5.50732 51.8442 5.58779L51.1468 6.15109L50.4761 6.79491C49.6177 7.68013 48.8935 8.67266 48.3033 9.77248C47.0962 11.9453 46.4792 14.4668 46.1573 16.8811C45.8354 19.3221 45.8891 21.6828 46.05 23.6946C46.1573 25.7065 46.4256 27.3965 46.6133 28.5499C46.7206 29.1133 46.8011 29.5693 46.8548 29.8644C46.9084 30.1326 46.9352 30.2667 46.9352 30.2667L46.9621 30.3472C47.4181 32.3591 46.1305 34.371 44.1186 34.8002C42.1067 35.2562 40.0949 33.9686 39.6657 31.9567C39.612 31.8763 39.5852 31.8226 39.5852 31.7689Z" fill="#070E14"/>
<path fill-rule="evenodd" clip-rule="evenodd" d="M29.9008 94.2446C18.7952 101.085 13.0815 95.103 13.0815 95.103C-2.35317 93.1834 0.0228663 69.6651 1.84588 51.6208C1.90802 51.0057 1.96952 50.397 2.02965 49.7956C3.85375 31.5547 13.3229 33.5397 13.3229 33.5397C19.7877 24.4192 29.257 28.4161 29.257 28.4161C33.4953 19.5907 51.8436 17.5789 55.0626 28.4161C55.0626 28.4161 64.5318 24.4192 70.9966 33.5397C70.9966 33.5397 80.4658 31.5547 82.2899 49.7956C82.3475 50.3718 82.4064 50.9549 82.4658 51.5438C84.2882 69.5981 86.6687 93.1806 71.238 95.103C71.238 95.103 65.5511 101.085 54.4188 94.2446C45.8816 99.9866 34.7191 95.8923 31.082 94.5582L31.0819 94.5582C30.2163 94.2407 29.777 94.0796 29.9008 94.2446ZM24.3204 38.3125L37.1159 52.1005L16.2461 48.9084L24.3204 38.3125ZM47.1758 52.1005L59.9713 38.3125L68.0456 48.9084L47.1758 52.1005ZM42.1347 58.4609L37.7891 67.7423H46.5072L42.1347 58.4609ZM59.5909 76.542L61.2004 73.484C62.944 72.867 64.3925 72.1696 65.3582 71.4453C64.5267 74.2619 61.6832 78.1247 56.962 81.0218L55.7281 78.688L55.5403 81.8266C53.3943 82.9532 50.9532 83.8653 48.1634 84.4286L46.3125 80.8877L46.0711 84.7773C44.8103 84.9383 43.4959 85.0455 42.101 85.0455C40.7329 85.0455 39.4185 84.9383 38.1309 84.7773L37.8895 80.8877L36.0386 84.4286C33.2756 83.8921 30.8077 82.98 28.6617 81.8802L28.4739 78.688L27.2132 81.0755C22.4383 78.1784 19.5412 74.2888 18.8438 71.4453C19.9704 72.0355 21.6604 72.7061 23.7527 73.3767L25.4427 76.5957L25.6036 73.94C27.2131 74.396 29.0104 74.8252 30.915 75.2008L32.444 78.1247L32.605 75.4959C34.3218 75.7909 36.0922 76.0055 37.8895 76.1665L39.4721 79.1441L39.6599 76.2738C40.4915 76.3275 41.3231 76.3543 42.1546 76.3543C43.174 76.3543 44.247 76.3275 45.3468 76.2738L45.5346 79.1441L47.0904 76.1397C48.8609 76.0056 50.6582 75.8178 52.4018 75.5495L52.5627 78.0979L54.0381 75.2813C55.9427 74.9594 57.7668 74.5302 59.4299 74.0473L59.5909 76.542Z" fill="#070E14"/>
</svg>
