<svg width="83" height="86" viewBox="0 0 83 86" fill="none" xmlns="http://www.w3.org/2000/svg">
<path d="M36.5586 20.7527C39.5898 -7.4671 56.7309 -0.117061 58.3673 4.20176L57.1333 5.30155C57.1333 5.30155 51.7147 0.365761 48.2006 5.22108C40.6092 15.7633 48.5762 20.2162 47.7714 22.6573C45.8937 28.2905 36.5586 20.7527 36.5586 20.7527Z" fill="#070E14"/>
<path fill-rule="evenodd" clip-rule="evenodd" d="M68.8159 15.324C64.8458 14.5461 60.7415 16.102 56.9324 19.3478C54.7059 16.1556 52.1039 14.3047 49.3409 14.3047C46.1756 14.3047 43.2517 16.6921 40.8374 20.7427C38.4232 16.6921 35.4993 14.3047 32.3339 14.3047C29.6246 14.3047 27.0762 16.0483 24.9034 19.1063C21.1747 15.9946 17.1778 14.5461 13.2882 15.2972C2.85332 17.3359 -2.56532 34.6112 1.21699 53.8715C4.97249 73.1318 16.5072 87.1076 26.9421 85.0689C29.4905 84.5592 31.7438 83.1643 33.6215 81.0183C35.2846 83.7008 37.5111 85.364 39.9254 85.364C42.8225 85.364 45.4245 83.0302 47.1413 79.3552C49.2605 82.4132 51.9698 84.4251 55.1351 85.0689C65.57 87.1076 77.0779 73.1318 80.8602 53.8715C84.6694 34.638 79.2508 17.3627 68.8159 15.324ZM20.9642 29.1406L32.3379 40.5412L16.4844 42.1507L20.9642 29.1406ZM50.3125 40.5412L61.6863 29.1406L66.1661 42.1507L50.3125 40.5412ZM35.7734 52.1211L40.7629 42.625L45.7792 52.1211H35.7734ZM20.6441 63.4387C19.0614 59.415 17.5056 55.3376 15.9766 51.1797C17.0764 52.8428 22.0122 59.093 22.0122 59.093C22.0122 59.093 25.5262 59.1467 26.0627 58.8248C27.4845 60.0588 28.9062 61.239 30.3279 62.3925C31.0347 62.0694 31.7264 61.731 32.4257 61.389C32.6553 61.2767 32.8857 61.164 33.1177 61.0513C33.4288 61.3535 33.7369 61.6557 34.0441 61.9569C34.6639 62.5648 35.2797 63.1687 35.9075 63.7606C36.1472 63.5466 36.3897 63.3325 36.6331 63.1176C37.1524 62.6592 37.6762 62.1967 38.1876 61.7219C38.2461 61.7892 38.3045 61.8565 38.3628 61.9236C39.1864 62.8723 39.9897 63.7976 40.8165 64.6994C41.7017 63.7337 42.5869 62.7412 43.4453 61.7219C44.2232 62.4193 44.9743 63.09 45.7254 63.7606C46.3532 63.1687 46.969 62.5647 47.5889 61.9568C47.896 61.6556 48.2041 61.3534 48.5152 61.0513C49.276 61.4425 50.0367 61.7985 50.7832 62.1478C50.958 62.2296 51.132 62.3111 51.305 62.3925C52.7267 61.239 54.1485 60.0588 55.5702 58.8248C56.1067 59.1467 58.9501 59.3076 58.9501 59.3076C58.9501 59.3076 64.5297 52.8428 65.6295 51.1797C64.1542 55.3107 62.6788 59.3613 61.1766 63.385C59.4866 63.7874 57.7698 64.1361 56.053 64.4312C55.8346 64.7694 55.6181 65.1057 55.4024 65.4406C54.7969 66.381 54.1983 67.3107 53.5851 68.2404C52.3512 67.8916 51.1172 67.5161 49.8833 67.0869C48.9444 68.1599 48.0055 69.2329 47.0667 70.279C46.3752 69.6785 45.696 69.0656 45.0124 68.4488C44.6883 68.1564 44.3633 67.8631 44.0354 67.5697C42.9624 68.5891 41.8895 69.6084 40.8165 70.5741C39.9312 69.5816 39.0728 68.6159 38.1876 67.5965C37.0341 68.5354 35.8806 69.4475 34.7272 70.3059C34.3248 69.7828 33.9291 69.2597 33.5335 68.7366C33.1378 68.2135 32.7421 67.6905 32.3398 67.1674C32.0299 67.2883 31.7221 67.4092 31.4159 67.5296C30.6353 67.8363 29.8646 68.1391 29.094 68.4281C27.8332 67.1137 26.5724 65.7725 25.3116 64.3776C23.7558 64.1093 22.1999 63.8143 20.6441 63.4387Z" fill="#070E14"/>
</svg>
