<svg width="51" height="64" viewBox="0 0 51 64" fill="none" xmlns="http://www.w3.org/2000/svg">
<path d="M18.4051 0.876797C18.7643 0.476483 19.2374 0.195427 19.7609 0.0712788C20.2845 -0.0528696 20.8334 -0.0141815 21.3343 0.182161C21.8352 0.378504 22.2641 0.723124 22.5636 1.16986C22.863 1.61659 23.0187 2.1441 23.0098 2.68172C23.0098 6.05356 23.0098 10.2188 22.8907 12.5989C22.8907 13.1249 23.0998 13.6294 23.472 14.0014C23.8443 14.3734 24.3491 14.5823 24.8755 14.5823L30.6512 14.6815C31.1323 14.649 31.6132 14.7459 32.0441 14.9621C32.475 15.1782 32.8401 15.5058 33.1015 15.9107C33.3628 16.3156 33.5109 16.7831 33.5302 17.2645C33.5496 17.746 33.4395 18.2238 33.2116 18.6484C22.7518 37.3125 21.7395 39.7124 15.7257 50.3833C15.4219 50.8961 14.9568 51.2938 14.4029 51.5146C13.849 51.7353 13.2376 51.7666 12.6641 51.6035C12.0906 51.4404 11.5873 51.0921 11.2327 50.613C10.8781 50.1339 10.6923 49.551 10.7042 48.9552C10.7042 44.9884 10.5652 40.7636 10.466 39.0381C10.4666 38.7728 10.3972 38.5121 10.2648 38.2823C10.1324 38.0525 9.94164 37.8616 9.7118 37.729C9.15738 37.4114 8.5417 37.2154 7.90564 37.1538C6.37736 37.0348 4.3926 37.3323 2.5666 37.1538C0.323804 37.1538 -0.549494 34.6348 0.740611 32.5126C1.47498 31.144 13.8401 8.05683 18.4051 0.876797Z" fill="url(#paint0_linear_1_7058)"/>
<path d="M18.4051 0.876797C18.7643 0.476483 19.2374 0.195427 19.7609 0.0712788C20.2845 -0.0528696 20.8334 -0.0141815 21.3343 0.182161C21.8352 0.378504 22.2641 0.723124 22.5636 1.16986C22.863 1.61659 23.0187 2.1441 23.0098 2.68172C23.0098 6.05356 23.0098 10.2188 22.8907 12.5989C22.8907 13.1249 23.0998 13.6294 23.472 14.0014C23.8443 14.3734 24.3491 14.5823 24.8755 14.5823L30.6512 14.6815C31.1323 14.649 31.6132 14.7459 32.0441 14.9621C32.475 15.1782 32.8401 15.5058 33.1015 15.9107C33.3628 16.3156 33.5109 16.7831 33.5302 17.2645C33.5496 17.746 33.4395 18.2238 33.2116 18.6484C22.7518 37.3125 21.7395 39.7124 15.7257 50.3833C15.4219 50.8961 14.9568 51.2938 14.4029 51.5146C13.849 51.7353 13.2376 51.7666 12.6641 51.6035C12.0906 51.4404 11.5873 51.0921 11.2327 50.613C10.8781 50.1339 10.6923 49.551 10.7042 48.9552C10.7042 44.9884 10.5652 40.7636 10.466 39.0381C10.4666 38.7728 10.3972 38.5121 10.2648 38.2823C10.1324 38.0525 9.94164 37.8616 9.7118 37.729C9.15738 37.4114 8.5417 37.2154 7.90564 37.1538C6.37736 37.0348 4.3926 37.3323 2.5666 37.1538C0.323804 37.1538 -0.549494 34.6348 0.740611 32.5126C1.47498 31.144 13.8401 8.05683 18.4051 0.876797Z" fill="url(#paint1_linear_1_7058)"/>
<path fill-rule="evenodd" clip-rule="evenodd" d="M33.1702 18.6718C33.3982 18.2472 33.5082 17.7694 33.4888 17.288C33.4695 16.8065 33.3214 16.3391 33.0601 15.9342C32.7987 15.5292 32.4336 15.2017 32.0027 14.9855C31.5718 14.7693 31.0909 14.6725 30.6098 14.7049L24.8341 14.6058C24.3077 14.6058 23.8029 14.3968 23.4307 14.0248C23.0584 13.6529 22.8493 13.1484 22.8493 12.6223C22.8493 10.2025 22.9684 6.03733 22.9684 2.70516C22.9773 2.16754 22.8216 1.64003 22.5222 1.19329C22.2228 0.746562 21.7938 0.401942 21.2929 0.205599C20.792 0.00925667 20.243 -0.0294324 19.7195 0.0947159C19.196 0.218864 18.723 0.49992 18.3637 0.900234C14.9698 6.23567 7.22913 20.4172 3.16033 27.8749C1.77099 30.4336 0.818311 32.1988 0.599986 32.5558C-0.690119 34.6781 0.183179 37.0979 2.42598 37.1971C3.34492 37.2465 4.26587 37.2465 5.18482 37.1971C6.04389 37.1385 6.90594 37.1385 7.76502 37.1971C8.40107 37.2586 9.01675 37.4547 9.57117 37.7723C9.80101 37.9049 9.99177 38.0957 10.1242 38.3256C10.2566 38.5554 10.326 38.8161 10.3254 39.0813C10.3254 40.8664 10.6231 45.1705 10.5636 48.9985C10.5026 49.622 10.6607 50.2472 11.0107 50.7669C11.3608 51.2866 11.8809 51.6684 12.4818 51.8467C13.0828 52.025 13.7271 51.9887 14.3042 51.744C14.8813 51.4994 15.3552 51.0616 15.6446 50.5059C18.1652 46.0233 19.7928 42.9887 21.5989 39.6168C24.199 34.8764 27.0769 29.5212 33.1702 18.6718ZM30.6495 17.5214L24.8539 17.4222C24.2336 17.4119 23.6213 17.2795 23.0522 17.0327C22.483 16.7859 21.9681 16.4294 21.5368 15.9837C21.1055 15.538 20.7663 15.0117 20.5386 14.4349C20.3109 13.8582 20.1991 13.2423 20.2096 12.6223C20.2096 10.3414 20.3088 6.47368 20.3088 3.22085C18.0065 6.98937 14.156 13.8521 10.6628 20.199L5.87948 28.946C4.41075 31.6434 3.37867 33.5674 3.1405 33.9442C3.03838 34.1001 2.9707 34.2759 2.94201 34.4599C3.61683 34.4599 4.35121 34.4599 5.20467 34.4599C6.15641 34.3999 7.11099 34.3999 8.06273 34.4599C9.0949 34.5557 10.0955 34.8665 11.0002 35.3723C11.6417 35.7282 12.18 36.2442 12.5626 36.8699C12.9452 37.4956 13.1591 38.2096 13.1835 38.9425C13.2827 40.7276 13.4613 45.0515 13.4018 48.9985C15.8232 44.6746 17.3713 41.6995 19.2172 38.407L20.3088 36.4235C22.6111 31.9806 25.4494 26.8237 30.6495 17.5214Z" fill="url(#paint2_linear_1_7058)"/>
<path d="M47.8377 36.7396C49.1477 36.1644 50.795 38.0288 49.8225 39.5759C48.85 41.123 47.2225 43.2452 46.2499 44.6733C45.9609 45.0994 45.849 45.6212 45.9379 46.1283C46.0268 46.6353 46.3095 47.088 46.7263 47.3906L49.505 49.374C49.7894 49.5374 50.0258 49.7729 50.1901 50.0567C50.3545 50.3405 50.441 50.6626 50.441 50.9905C50.441 51.3184 50.3545 51.6405 50.1901 51.9244C50.0258 52.2082 49.7894 52.4436 49.505 52.607C36.4054 59.1524 34.9168 60.1441 27.4144 63.9126C27.0361 64.0294 26.6314 64.0305 26.2525 63.9157C25.8736 63.8009 25.5377 63.5754 25.288 63.2683C25.0383 62.9612 24.8862 62.5865 24.8513 62.1923C24.8164 61.7982 24.9003 61.4026 25.0922 61.0564C26.5014 59.073 27.9304 56.6731 28.6251 55.5028C28.7663 55.2804 28.8413 55.0225 28.8413 54.7591C28.8413 54.4956 28.7663 54.2377 28.6251 54.0153C28.4531 53.7044 28.2242 53.4285 27.9503 53.2021C27.1167 52.5475 25.9655 51.9327 24.8739 51.2186C23.7822 50.5046 24.0601 48.5608 25.6082 47.8468C26.5808 47.3113 42.459 38.961 47.8377 36.7396Z" fill="url(#paint3_linear_1_7058)"/>
<path d="M47.8377 36.7396C49.1477 36.1644 50.795 38.0288 49.8225 39.5759C48.85 41.123 47.2225 43.2452 46.2499 44.6733C45.9609 45.0994 45.849 45.6212 45.9379 46.1283C46.0268 46.6353 46.3095 47.088 46.7263 47.3906L49.505 49.374C49.7894 49.5374 50.0258 49.7729 50.1901 50.0567C50.3545 50.3405 50.441 50.6626 50.441 50.9905C50.441 51.3184 50.3545 51.6405 50.1901 51.9244C50.0258 52.2082 49.7894 52.4436 49.505 52.607C36.4054 59.1524 34.9168 60.1441 27.4144 63.9126C27.0361 64.0294 26.6314 64.0305 26.2525 63.9157C25.8736 63.8009 25.5377 63.5754 25.288 63.2683C25.0383 62.9612 24.8862 62.5865 24.8513 62.1923C24.8164 61.7982 24.9003 61.4026 25.0922 61.0564C26.5014 59.073 27.9304 56.6731 28.6251 55.5028C28.7663 55.2804 28.8413 55.0225 28.8413 54.7591C28.8413 54.4956 28.7663 54.2377 28.6251 54.0153C28.4531 53.7044 28.2242 53.4285 27.9503 53.2021C27.1167 52.5475 25.9655 51.9327 24.8739 51.2186C23.7822 50.5046 24.0601 48.5608 25.6082 47.8468C26.5808 47.3113 42.459 38.961 47.8377 36.7396Z" fill="url(#paint4_linear_1_7058)"/>
<path fill-rule="evenodd" clip-rule="evenodd" d="M49.4638 52.6069C49.7483 52.4435 49.9847 52.2081 50.149 51.9243C50.3134 51.6404 50.3999 51.3183 50.3999 50.9904C50.3999 50.6625 50.3134 50.3404 50.149 50.0566C49.9847 49.7728 49.7483 49.5373 49.4638 49.3739L46.6851 47.3905C46.2747 47.082 45.9999 46.6266 45.9185 46.1198C45.837 45.6131 45.9553 45.0946 46.2485 44.6732C47.221 43.2848 48.6302 41.2419 49.7615 39.5361C50.8929 37.8304 49.1463 36.1246 47.7768 36.6998C43.8072 38.4254 34.0024 43.4831 28.842 46.1409L25.5869 47.807C24.0388 48.5211 23.6022 50.2466 24.8526 51.1789C25.3488 51.5557 25.9045 51.8929 26.4404 52.2301C26.9541 52.5265 27.451 52.8509 27.929 53.202C28.2029 53.4284 28.4318 53.7043 28.6038 54.0152C28.745 54.2376 28.82 54.4956 28.82 54.759C28.82 55.0224 28.745 55.2803 28.6038 55.5027C27.9091 56.673 26.4801 59.0134 25.0709 61.0564C24.879 61.4025 24.7951 61.7981 24.83 62.1922C24.8649 62.5864 25.017 62.9611 25.2667 63.2682C25.5164 63.5753 25.8523 63.8008 26.2312 63.9156C26.6101 64.0304 27.0148 64.0293 27.3931 63.9125C30.529 62.3258 32.6131 61.2349 34.9551 59.9456C38.1506 58.2994 41.8423 56.3755 49.4638 52.6069ZM35.1933 57.1688C38.0315 55.6812 41.5049 53.8962 47.5584 50.8615L45.3355 49.2748C44.4174 48.6166 43.7934 47.6256 43.5968 46.5137C43.4003 45.4018 43.6467 44.2572 44.2836 43.3245L46.6653 39.8535C43.8668 41.1824 39.917 43.1658 36.2254 45.05L30.271 48.1442L27.0954 49.7706L27.8099 50.207C28.391 50.545 28.9481 50.9227 29.4771 51.3375C29.9772 51.7338 30.4009 52.2177 30.7275 52.7656C31.0966 53.3614 31.2921 54.0483 31.2921 54.749C31.2921 55.4498 31.0966 56.1366 30.7275 56.7325C30.1916 57.625 29.1992 59.2514 28.1076 60.9175L33.8833 57.9225L35.1933 57.1688Z" fill="url(#paint5_linear_1_7058)"/>
<defs>
<linearGradient id="paint0_linear_1_7058" x1="28.5672" y1="6.27174" x2="8.85823" y2="39.4465" gradientUnits="userSpaceOnUse">
<stop stop-color="#FFFD54"/>
<stop offset="1" stop-color="#FFBC00"/>
</linearGradient>
<linearGradient id="paint1_linear_1_7058" x1="-2.79229" y1="18.331" x2="21.12" y2="27.6641" gradientUnits="userSpaceOnUse">
<stop stop-color="white"/>
<stop offset="1" stop-color="white" stop-opacity="0"/>
</linearGradient>
<linearGradient id="paint2_linear_1_7058" x1="7.32838" y1="37.2367" x2="22.9957" y2="18.582" gradientUnits="userSpaceOnUse">
<stop stop-color="#F5BE41" stop-opacity="0.8"/>
<stop offset="0.56" stop-color="#F8D147" stop-opacity="0.56"/>
<stop offset="1" stop-color="#FFFD54" stop-opacity="0"/>
</linearGradient>
<linearGradient id="paint3_linear_1_7058" x1="2426.27" y1="1911.08" x2="2106.04" y2="1766.96" gradientUnits="userSpaceOnUse">
<stop stop-color="#FFFD54"/>
<stop offset="1" stop-color="#FFBC00"/>
</linearGradient>
<linearGradient id="paint4_linear_1_7058" x1="2122.57" y1="2001.94" x2="2272.72" y2="1784.51" gradientUnits="userSpaceOnUse">
<stop stop-color="white"/>
<stop offset="1" stop-color="white" stop-opacity="0"/>
</linearGradient>
<linearGradient id="paint5_linear_1_7058" x1="26.7778" y1="53.1425" x2="38.6457" y2="50.0047" gradientUnits="userSpaceOnUse">
<stop stop-color="#F5BE41" stop-opacity="0.8"/>
<stop offset="1" stop-color="#FFFD54" stop-opacity="0"/>
</linearGradient>
</defs>
</svg>
