<svg width="482" height="924" viewBox="0 0 482 924" fill="none" xmlns="http://www.w3.org/2000/svg">
<path d="M-11.9118 924C40.9346 673.908 38.5787 436.027 27.2812 280.456C15.02 111.925 -10.0379 1.12461 -10.3056 0L-12.3402 0.696186C-12.0725 1.8208 12.9319 112.461 25.1395 280.777C36.437 436.08 38.7929 673.641 -14 923.357L-11.9118 924Z" fill="#131618"/>
<path d="M441.647 347.983L441.486 345.359L31.5117 383.543L31.6723 386.167L441.647 347.983Z" fill="#131618"/>
<path d="M480.145 622.708L481.002 620.298L32.0481 383.648L31.1914 386.058L480.145 622.708Z" fill="#131618"/>
<path d="M290.548 98.8029L289.102 96.875L30.8672 383.864L32.3128 385.792L290.548 98.8029Z" fill="#131618"/>
<path d="M264.421 730.403L32.4215 384.023L30.7617 385.684L262.815 732.063L264.421 730.403Z" fill="#131618"/>
<path d="M467.026 614.358L465.42 612.483C393.887 530.869 427.94 350.021 428.261 348.2L428.422 347.397L427.779 347.076C314.965 289.56 276.629 115.299 276.254 113.532L276.04 112.568L275.29 112.836C201.937 136.292 128.852 107.802 80.3958 79.74C27.8706 49.322 -7.73512 12.9061 -8.05638 12.5312L-9.07368 14.0307C-8.69889 14.4056 27.0139 50.9822 79.6997 81.5073C128.209 109.622 201.402 138.166 274.915 114.978C278.128 128.955 317.803 292.559 426.601 348.522C424.192 361.803 395.065 531.779 462.796 612.108C444.913 611.519 319.088 611.519 256.443 720.232C251.999 721.142 205.31 730.835 150.965 757.183C98.4396 782.621 27.8706 829.104 -10.1445 906.381L-8.75243 907.399C29.0485 830.604 99.2962 784.334 151.554 759.004C208.255 731.585 256.604 722.213 257.086 722.106L257.407 722.052L257.621 721.731C324.228 605.629 463.492 614.09 464.938 614.197L467.026 614.358Z" fill="#131618"/>
<path d="M425.103 592.239L423.497 590.418C358.657 515.658 390.408 353.339 390.782 351.733L390.943 350.93L390.301 350.608C287.874 297.698 253.821 140.521 253.5 138.914L251.947 139.396C252.268 141.003 286.375 298.501 389.069 352.054C386.713 364.586 359.728 516.622 420.927 590.096C404.222 589.775 291.515 591.275 235.884 689.598C227.157 691.311 69.6348 724.46 1.04687 845.972L2.38544 847.096C72.2048 723.389 234.92 691.74 236.527 691.472L236.955 691.365L237.116 690.883C296.387 585.759 421.676 592.024 422.961 592.131L425.103 592.239Z" fill="#131618"/>
<path d="M353.141 355.428L353.462 354.464L352.713 354.089C260.834 305.838 231.011 165.583 230.69 164.191L230.475 163.28L229.726 163.495C125.318 193.698 23.8015 102.552 4.52626 83.9688L3.5625 85.5218C22.8913 104.158 124.515 195.412 229.405 165.583C232.189 178.007 263.458 309.319 352.124 355.91L352.445 355.053L353.141 355.428Z" fill="#131618"/>
<path d="M380.984 570.015L381.037 568.034C379.913 567.98 267.902 563.696 215.323 658.967C207.453 660.52 73.3824 688.206 9.61328 791.349L10.8983 792.527C75.8988 687.457 214.52 661.109 215.912 660.841L216.287 660.787L216.501 660.412C268.438 565.731 379.859 569.962 380.984 570.015Z" fill="#131618"/>
<path d="M339.596 546.241C288.035 485.405 315.449 359.984 315.716 358.752L315.877 357.949L315.234 357.628C233.796 313.929 208.203 190.704 207.989 189.472L207.828 188.562L207.079 188.776C117.449 212.982 33.3869 141.167 9.77465 118.568L9.61402 118.461L8.91797 120.228C32.5302 142.774 116.699 214.642 206.704 190.918C209.22 202.378 236.152 316.821 314.11 359.074C311.808 370.106 288.624 488.671 338.632 547.687L339.596 546.241Z" fill="#131618"/>
<path d="M195.35 630.1L195.135 628.172C193.957 628.386 75.3609 650.289 16.25 740.419L17.4815 741.65C76.2176 652.11 194.172 630.26 195.35 630.1Z" fill="#131618"/>
<path d="M299.117 525.832L297.724 524.118C254.944 472.761 275.665 373.581 278.128 362.442L278.449 361.532L277.753 360.996C206.702 322.01 185.392 215.868 185.178 214.797L183.625 215.225C183.84 216.296 205.203 322.759 276.415 362.442C273.47 375.937 254.194 472.065 295.208 523.85C282.465 524.332 208.844 529.902 174.202 597.539C167.456 598.824 72.0965 617.782 21.4453 691.845L22.6768 693.13C74.5059 617.3 173.774 599.627 174.791 599.467L175.166 599.413L175.38 599.038C212.645 525.778 296.279 525.832 297.082 525.885L299.117 525.832Z" fill="#131618"/>
<path d="M257.087 503.665L255.748 502.005C218.001 455.575 239.685 369.408 240.649 365.767L240.863 364.963L240.274 364.535C179.718 330.261 162.638 241.042 162.477 240.132L162.317 239.221L161.567 239.382C94.7995 253.359 34.8855 201.949 18.1267 185.883L17.1094 187.436C33.9217 203.555 93.9428 255.019 161.085 241.471C163.066 251.003 181.485 332.885 238.989 365.981C236.526 376.049 218.268 456.324 253.392 501.844C242.148 502.648 181.431 509.502 153.643 566.911C147.378 568.036 68.7778 583.298 25.5691 645.152L26.8006 646.437C71.2408 582.87 153.428 568.946 154.285 568.785L154.66 568.732L154.874 568.303C184.858 505.807 254.57 503.719 255.266 503.719L257.087 503.665Z" fill="#131618"/>
<path d="M203.06 369.357L203.382 368.447L202.685 368.018C152.57 338.297 139.773 266.161 139.666 265.465L139.505 264.554L138.756 264.662C82.7503 273.873 34.8834 231.887 21.4978 218.82L20.4805 220.373C33.9196 233.494 81.8937 275.533 138.22 266.75C139.88 275.211 154.176 341.456 201.989 369.786L202.311 368.929L203.06 369.357Z" fill="#131618"/>
<path d="M213.34 481.599L213.233 479.617C212.644 479.671 156.264 483.794 133.027 536.169C127.298 537.133 64.171 548.754 28.5117 599.843L29.7432 601.129C66.5269 548.433 132.973 538.15 133.669 538.097L134.097 538.043L134.312 537.615C156.96 485.776 212.751 481.652 213.34 481.599Z" fill="#131618"/>
<path d="M173.025 459.32L171.954 457.874C147.11 424.885 165.421 373.367 165.582 372.885L165.903 372.029L165.261 371.6C125.639 346.484 117.019 291.325 116.912 290.789L115.359 291.164C115.466 291.699 124.087 347.18 163.869 372.939C161.62 379.794 147.431 426.278 169.812 457.82C162.102 459.373 126.764 468.37 112.629 505.429C102.777 506.982 57.5334 516.246 30.6016 556.036L31.833 557.268C58.6043 517.639 103.955 508.749 112.896 507.357L113.432 507.624L113.807 506.767C129.12 465.746 171.043 459.534 171.418 459.48L173.025 459.32Z" fill="#131618"/>
<path d="M130.885 437.047L130.028 435.815C111.931 409.842 127.833 376.8 127.993 376.479L128.422 375.622L127.726 375.14C98.545 354.629 94.2616 316.5 94.208 316.125L94.101 315.268H93.4049C57.3173 314.947 33.4374 290.687 27.0123 283.297L25.9414 284.743C32.4736 292.24 56.4606 316.607 92.7624 317.249C93.5655 323.033 99.4552 357.039 126.28 376.372C123.871 381.78 112.038 411.502 128.1 435.976C122.532 437.957 99.5088 447.704 91.9593 474.909C87.194 475.498 52.0166 480.8 31.8311 513.52L33.1161 514.699C54.2654 480.425 92.2805 476.837 92.6553 476.783L93.0837 476.676L93.2443 476.033C101.329 445.723 129.332 437.475 129.6 437.368L130.885 437.047Z" fill="#131618"/>
<path d="M71.9344 446.044V444.063C71.6667 444.063 45.9663 443.955 32.1523 473.142L33.5444 474.106C46.8765 445.99 71.6667 446.044 71.9344 446.044Z" fill="#131618"/>
<path d="M88.1052 413.697C76.7542 394.9 89.765 380.762 90.3005 380.172L91.1036 379.369L90.2469 378.673C71.507 362.875 71.4 341.775 71.4 341.614V340.758L70.7039 340.597C40.9879 334.653 29.2085 314.785 29.1014 314.57L27.8164 315.695C28.2983 316.552 39.917 336.152 69.8472 342.418C70.0614 346.541 72.0425 365.124 88.5871 379.583C85.7493 383.171 76.2188 397.309 86.8737 414.928L88.1052 413.697Z" fill="#131618"/>
</svg>
