<svg viewBox="0 0 70 40" fill="none" xmlns="http://www.w3.org/2000/svg">
<path d="M67.918 20C67.918 30.9744 58.9949 40 47.918 40C36.9436 40 27.918 30.9744 27.918 20C27.918 9.02564 36.841 0 47.8154 0C58.9949 0 67.918 9.02564 67.918 20Z" fill="#F9B50B"/>
<path d="M41.1474 20.1026C41.1474 18.6667 40.9423 17.2308 40.7372 15.8974H28.4295C28.5321 15.1795 28.7372 14.5641 28.9423 13.7436H39.9167C39.7115 13.0256 39.4039 12.3077 39.0962 11.5897H29.7628C30.0705 10.8718 30.4808 10.2564 30.891 9.4359H37.9679C37.5577 8.71795 37.0449 8 36.4295 7.28205H32.5321C33.1474 6.5641 33.7628 5.94872 34.5833 5.23077C31.0962 1.94872 26.3782 0 21.1474 0C10.2756 0.307692 1.25 9.02564 1.25 20C1.25 30.9744 10.1731 40 21.25 40C26.4808 40 31.0962 37.9487 34.6859 34.7692C35.4038 34.1538 36.0192 33.4359 36.7372 32.6154H32.6346C32.1218 32 31.609 31.282 31.1987 30.5641H38.1731C38.5833 29.9487 38.9936 29.2308 39.3013 28.4103H29.968C29.6603 27.7949 29.3526 27.0769 29.1474 26.2564H40.1218C40.7372 24.4103 41.1474 22.359 41.1474 20.1026Z" fill="#C8191C"/>
<path d="M28.3269 25.1302L28.6346 23.2841C28.5321 23.2841 28.3269 23.3866 28.1218 23.3866C27.4038 23.3866 27.3013 22.9764 27.4038 22.7712L28.0192 19.0789H29.1474L29.4551 17.0276H28.4295L28.6346 15.7969H26.4808C26.4808 15.7969 25.25 22.7712 25.25 23.5917C25.25 24.8225 25.9679 25.4379 26.9936 25.4379C27.609 25.4379 28.1218 25.2328 28.3269 25.1302Z" fill="white"/>
<path d="M29.0469 21.7388C29.0469 24.7132 31.0982 25.4311 32.7392 25.4311C34.2776 25.4311 34.9956 25.1234 34.9956 25.1234L35.4058 23.0721C35.4058 23.0721 34.2776 23.585 33.1494 23.585C30.7905 23.585 31.2007 21.8414 31.2007 21.8414H35.5084C35.5084 21.8414 35.8161 20.508 35.8161 19.8926C35.8161 18.5593 35.0982 16.8157 32.7392 16.8157C30.6879 16.7132 29.0469 19.0721 29.0469 21.7388ZM32.7392 18.6619C33.8674 18.6619 33.6623 19.9952 33.6623 20.0978H31.3033C31.4058 19.9952 31.611 18.6619 32.7392 18.6619Z" fill="white"/>
<path d="M46.1743 25.1246L46.5845 22.7656C46.5845 22.7656 45.5589 23.2784 44.7384 23.2784C43.3025 23.2784 42.5845 22.1502 42.5845 20.8169C42.5845 18.2528 43.8153 16.9195 45.3538 16.9195C46.3794 16.9195 47.3025 17.5349 47.3025 17.5349L47.6102 15.2784C47.6102 15.2784 46.3794 14.7656 45.1486 14.7656C42.6871 14.7656 40.3281 16.9195 40.3281 20.9195C40.3281 23.5861 41.5589 25.3297 44.123 25.3297C45.0461 25.4323 46.1743 25.1246 46.1743 25.1246Z" fill="white"/>
<path d="M16.7383 16.7188C15.3024 16.7188 14.1742 17.129 14.1742 17.129L13.8665 18.9752C13.8665 18.9752 14.7896 18.5649 16.2255 18.5649C16.9434 18.5649 17.5588 18.6675 17.5588 19.2829C17.5588 19.6931 17.4562 19.7957 17.4562 19.7957H16.5332C14.687 19.7957 12.7383 20.5136 12.7383 22.9752C12.7383 24.9239 13.9691 25.3341 14.7896 25.3341C16.2255 25.3341 16.9434 24.4111 17.046 24.4111L16.9434 25.2316H18.687L19.5075 19.3854C19.5075 16.8213 17.4562 16.7188 16.7383 16.7188ZM17.1485 21.4367C17.1485 21.7444 16.9434 23.488 15.7126 23.488C15.0973 23.488 14.8921 22.9752 14.8921 22.6675C14.8921 22.1546 15.1998 21.4367 16.8408 21.4367C17.046 21.4367 17.1485 21.4367 17.1485 21.4367Z" fill="white"/>
<path d="M21.5563 25.3351C22.0691 25.3351 24.7358 25.4377 24.7358 22.5659C24.7358 19.8992 22.1717 20.4121 22.1717 19.3864C22.1717 18.8736 22.5819 18.6685 23.2999 18.6685C23.6076 18.6685 24.7358 18.771 24.7358 18.771L25.0435 16.8223C25.0435 16.8223 24.3255 16.6172 22.9922 16.6172C21.4537 16.6172 19.8127 17.2326 19.8127 19.3864C19.8127 21.848 22.4794 21.6428 22.4794 22.5659C22.4794 23.1813 21.7614 23.2839 21.2486 23.2839C20.3255 23.2839 19.2999 22.9762 19.2999 22.9762L18.9922 24.9249C19.1973 25.13 19.8127 25.3351 21.5563 25.3351Z" fill="white"/>
<path d="M63.8169 15.0781L63.4066 17.9499C63.4066 17.9499 62.5861 16.9243 61.3554 16.9243C59.4067 16.9243 57.7656 19.2833 57.7656 22.0525C57.7656 23.7961 58.5861 25.5397 60.4323 25.5397C61.6631 25.5397 62.4836 24.7192 62.4836 24.7192L62.381 25.4371H64.5349L66.0733 15.2833L63.8169 15.0781ZM62.7913 20.6166C62.7913 21.7448 62.2784 23.2833 61.0477 23.2833C60.3297 23.2833 59.9195 22.6679 59.9195 21.5397C59.9195 19.7961 60.6374 18.7704 61.6631 18.7704C62.381 18.873 62.7913 19.3858 62.7913 20.6166Z" fill="white"/>
<path d="M5.14894 25.232L6.37971 17.6422L6.58484 25.232H8.02073L10.79 17.6422L9.66176 25.232H11.9182L13.6618 15.0781H10.1746L8.02073 21.3345L7.91817 15.0781H4.84125L3.09766 25.232H5.14894Z" fill="white"/>
<path d="M37.9683 25.2296C38.5837 21.7424 38.6863 18.8706 40.2248 19.3834C40.4299 18.0501 40.7376 17.4347 40.9427 16.9219H40.5324C39.6094 16.9219 38.7889 18.1526 38.7889 18.1526L38.994 17.0244H36.9427L35.6094 25.2296H37.9683Z" fill="white"/>
<path d="M51.0977 16.7188C49.6618 16.7188 48.5336 17.129 48.5336 17.129L48.2259 18.9752C48.2259 18.9752 49.1489 18.5649 50.5848 18.5649C51.3028 18.5649 51.9182 18.6675 51.9182 19.2829C51.9182 19.6931 51.8156 19.7957 51.8156 19.7957H50.8925C49.0464 19.7957 47.0977 20.5136 47.0977 22.9752C47.0977 24.9239 48.3284 25.3341 49.1489 25.3341C50.5848 25.3341 51.3028 24.4111 51.4053 24.4111L51.3028 25.2316H53.2515L54.072 19.3854C54.072 16.8213 51.8156 16.7188 51.0977 16.7188ZM51.6105 21.4367C51.6105 21.7444 51.4053 23.488 50.1746 23.488C49.5592 23.488 49.3541 22.9752 49.3541 22.6675C49.3541 22.1546 49.6618 21.4367 51.3028 21.4367C51.5079 21.4367 51.5079 21.4367 51.6105 21.4367Z" fill="white"/>
<path d="M55.7105 25.2296C56.3259 21.7424 56.4285 18.8706 57.9669 19.3834C58.1721 18.0501 58.4798 17.4347 58.6849 16.9219H58.2746C57.3516 16.9219 56.5311 18.1526 56.5311 18.1526L56.7362 17.0244H54.6849L53.3516 25.2296H55.7105Z" fill="white"/>
</svg>
