<svg width="71" height="51" viewBox="0 0 71 51" fill="none" xmlns="http://www.w3.org/2000/svg">
<path d="M21.1495 1.27273V50H12.3224V9.86186H12.0369L0.64027 17.1424V9.05291L12.7507 1.27273H21.1495ZM64.9279 18.1893L62.62 23.2571H31.0472L32.9268 18.1893H64.9279ZM60.5263 28.0156L58.0756 33.1548H31.0472L32.9268 28.0156H60.5263ZM70.9237 5.2223L67.5927 12.3125C66.8313 11.7098 65.9669 11.1229 64.9993 10.5518C64.0317 9.98082 62.9611 9.50497 61.7873 9.12429C60.6135 8.74361 59.3287 8.55326 57.9329 8.55326C55.5695 8.55326 53.4837 9.1798 51.6754 10.4329C49.8672 11.6701 48.4476 13.5576 47.4165 16.0955C46.4014 18.6175 45.8938 21.8137 45.8938 25.6839C45.8938 29.5542 46.4014 32.7504 47.4165 35.2724C48.4476 37.7944 49.8672 39.6661 51.6754 40.8874C53.4837 42.1088 55.5695 42.7195 57.9329 42.7195C59.3287 42.7195 60.6135 42.5371 61.7873 42.1722C62.9611 41.8074 64.0159 41.3474 64.9517 40.7923C65.9034 40.2371 66.7203 39.6819 67.4023 39.1268L70.7809 46.217C69.0837 47.6921 67.1248 48.8024 64.9041 49.5479C62.6993 50.2934 60.3756 50.6662 57.9329 50.6662C53.8723 50.6662 50.2717 49.6748 47.131 47.6921C44.0063 45.6935 41.5556 42.8305 39.7791 39.103C38.0026 35.3596 37.1143 30.8866 37.1143 25.6839C37.1143 20.4654 38.0026 15.9845 39.7791 12.2411C41.5556 8.49775 44.0063 5.62677 47.131 3.62819C50.2717 1.61375 53.8723 0.606532 57.9329 0.606532C60.4708 0.606532 62.8262 1.01101 64.9993 1.81996C67.1882 2.61304 69.163 3.74716 70.9237 5.2223Z" fill="#FF1F1F"/>
</svg>
