<svg width="22" height="21" viewBox="0 0 22 21" fill="none" xmlns="http://www.w3.org/2000/svg">
<path d="M13.0848 20.7208C17.7988 19.7562 21.3448 15.5853 21.3448 10.5862C21.3448 4.87287 16.7133 0.241333 11 0.241333C5.28669 0.241333 0.655151 4.87287 0.655151 10.5862C0.655151 15.5346 4.12965 19.6716 8.77215 20.6905V13.2154H6.44826V10.1394H8.77215V7.51213C8.77215 5.4476 10.1449 3.55168 13.308 3.55168C14.5886 3.55168 15.5357 3.67102 15.5357 3.67102L15.461 6.54345C15.461 6.54345 14.4952 6.53431 13.4413 6.53431C12.3007 6.53431 12.1179 7.04529 12.1179 7.89339V10.1394H15.5517L15.4023 13.2154H12.1179V20.8713C12.445 20.8361 12.7676 20.7857 13.0848 20.7208Z" fill="white"/>
</svg>
