<svg width="22" height="21" viewBox="0 0 22 21" fill="none" xmlns="http://www.w3.org/2000/svg">
<path fill-rule="evenodd" clip-rule="evenodd" d="M21.3448 10.5862C21.3448 16.2991 16.7129 20.931 11 20.931C5.28705 20.931 0.655151 16.2991 0.655151 10.5862C0.655151 4.87323 5.28705 0.241333 11 0.241333C16.7129 0.241333 21.3448 4.87323 21.3448 10.5862ZM11.3707 7.8784C10.3646 8.29651 8.35343 9.16288 5.33791 10.4767C4.84825 10.6715 4.59136 10.862 4.56808 11.0482C4.52843 11.3637 4.92325 11.4879 5.45946 11.656C5.53274 11.6793 5.6086 11.7025 5.68619 11.7284C6.21463 11.9 6.92498 12.1008 7.29394 12.1086C7.62929 12.1155 8.00343 11.9775 8.41636 11.6948C11.2336 9.7922 12.6879 8.83099 12.7793 8.8103C12.8439 8.79564 12.9336 8.77668 12.9939 8.83099C13.0543 8.88444 13.0483 8.98616 13.0422 9.01375C13.0026 9.18013 11.456 10.6189 10.6543 11.3637C10.4043 11.5956 10.2276 11.7603 10.1914 11.7982C10.1103 11.8819 10.0276 11.962 9.94825 12.0387C9.45687 12.5112 9.08963 12.8663 9.96894 13.4456C10.3914 13.7241 10.7293 13.9543 11.0664 14.1836C11.4345 14.4344 11.8017 14.6844 12.2776 14.9965C12.3983 15.0758 12.5138 15.1577 12.6267 15.2379C13.0552 15.5439 13.4405 15.8181 13.9164 15.775C14.1922 15.7491 14.4784 15.4896 14.6233 14.7146C14.9655 12.8818 15.6396 8.91288 15.7957 7.27668C15.8052 7.14083 15.7994 7.00434 15.7784 6.86978C15.7659 6.7611 15.713 6.6611 15.6302 6.58961C15.5069 6.48875 15.3155 6.4672 15.2293 6.46892C14.8405 6.47582 14.2439 6.68357 11.3707 7.8784Z" fill="white"/>
</svg>
