<svg width="40" height="40" viewBox="0 0 40 40" fill="none" xmlns="http://www.w3.org/2000/svg">
<g clip-path="url(#clip0_1_10889)">
<path d="M20 0C8.95422 0 0 8.95422 0 20C0 31.0458 8.95422 40 20 40C31.0458 40 40 31.0458 40 20C40 8.95422 31.0458 0 20 0Z" fill="#40B3E0"/>
<path d="M29.7347 11.4959L26.1623 29.5067C26.1623 29.5067 25.6628 30.7558 24.2889 30.1562L16.0455 23.8362L13.048 22.3875L8.00203 20.6887C8.00203 20.6887 7.22766 20.414 7.15266 19.8145C7.07766 19.215 8.02703 18.8903 8.02703 18.8903L28.0858 11.0215C28.0858 11.0215 29.7345 10.2972 29.7345 11.4962" fill="white"/>
<path d="M15.4109 29.3073C15.4109 29.3073 15.1703 29.2848 14.8703 28.3355C14.5708 27.3862 13.0469 22.3903 13.0469 22.3903L25.1622 14.6966C25.1622 14.6966 25.8617 14.2719 25.8367 14.6966C25.8367 14.6966 25.9616 14.7716 25.5867 15.1212C25.2122 15.4711 16.0695 23.6894 16.0695 23.6894" fill="#D2E5F1"/>
<path d="M19.2044 26.2659L15.9439 29.2387C15.9439 29.2387 15.6889 29.4322 15.4102 29.3109L16.0345 23.7891" fill="#B5CFE4"/>
</g>
<defs>
<clipPath id="clip0_1_10889">
<rect width="40" height="40" fill="white"/>
</clipPath>
</defs>
</svg>
