<svg viewBox="0 0 64 64" fill="none" xmlns="http://www.w3.org/2000/svg">
<g opacity="0.9">
<path d="M28.8882 44.5359C20.2366 44.5359 11.9194 44.5359 7.19538 44.5359C4.98624 44.5359 3.19727 42.7451 3.19727 40.5359V13.3359C3.19727 11.1268 4.98096 9.33594 7.1901 9.33594C16.9062 9.33594 41.8446 9.33594 53.605 9.33594C55.8142 9.33594 57.5973 11.1268 57.5973 13.3359V22.6693" stroke="white" stroke-width="2"/>
<path d="M18.5641 51.9222C18.0572 52.1414 17.8239 52.73 18.0431 53.237C18.2622 53.7439 18.8509 53.9772 19.3578 53.758L18.5641 51.9222ZM28.7501 49.2734C26.6544 49.2734 24.0785 49.9604 22.1005 50.6061C21.0956 50.9342 20.2149 51.2618 19.5852 51.5075C19.2701 51.6304 19.017 51.7332 18.8417 51.8056C18.754 51.8418 18.6857 51.8705 18.6388 51.8904C18.6154 51.9003 18.5972 51.908 18.5847 51.9134C18.5784 51.9161 18.5736 51.9181 18.5701 51.9196C18.5684 51.9204 18.567 51.921 18.566 51.9214C18.5655 51.9216 18.5651 51.9218 18.5648 51.9219C18.5646 51.922 18.5644 51.9221 18.5644 51.9221C18.5642 51.9222 18.5641 51.9222 18.9609 52.8401C19.3578 53.758 19.3577 53.758 19.3576 53.7581C19.3577 53.7581 19.3576 53.7581 19.3576 53.7581C19.3577 53.758 19.3578 53.758 19.358 53.7579C19.3585 53.7577 19.3592 53.7574 19.3604 53.7569C19.3627 53.7559 19.3664 53.7543 19.3715 53.7521C19.3816 53.7478 19.3973 53.7411 19.4183 53.7322C19.4602 53.7145 19.5233 53.688 19.6054 53.654C19.7698 53.5861 20.0106 53.4883 20.3122 53.3707C20.916 53.1351 21.7603 52.8211 22.7211 52.5074C24.6744 51.8698 26.9931 51.2734 28.7501 51.2734V49.2734Z" fill="white"/>
<path d="M48.8887 53.3359H31.7949C30.1381 53.3359 28.7949 51.9928 28.7949 50.3359V20.3359C28.7949 18.6791 30.1381 17.3359 31.7949 17.3359H54.5949C56.2518 17.3359 57.5949 18.6791 57.5949 20.3359V25.7804" stroke="white" stroke-width="2"/>
<path d="M40.9961 46.7656H43.7961" stroke="white" stroke-width="2" stroke-linecap="round"/>
<path d="M47.75 28.8047C47.75 27.1478 49.0931 25.8047 50.75 25.8047H58.6878C60.3446 25.8047 61.6878 27.1478 61.6878 28.8047V50.6714C61.6878 52.3282 60.3446 53.6714 58.6878 53.6714H50.75C49.0931 53.6714 47.75 52.3282 47.75 50.6714V28.8047Z" stroke="white" stroke-width="2"/>
<path d="M53.7227 48.6016H55.7138" stroke="white" stroke-width="2" stroke-linecap="round"/>
</g>
</svg>
