<svg  viewBox="0 0 64 64" fill="none" xmlns="http://www.w3.org/2000/svg">
<g opacity="0.9">
<path d="M33.5819 5.39966L33.6509 4.40204L32.2955 4.30832L32.6089 5.63029L33.5819 5.39966ZM56.5339 22.6638L56.8789 23.6024L57.8161 23.2578L57.473 22.3201L56.5339 22.6638ZM33.7163 5.96659L32.7432 6.19722L32.7432 6.19723L33.7163 5.96659ZM34.2026 6.8725L34.9325 6.18891V6.18891L34.2026 6.8725ZM35.0091 7.73362L34.2793 8.41721V8.41721L35.0091 7.73362ZM35.4288 9.78484L34.4891 9.44282L34.4891 9.44282L35.4288 9.78484ZM35.1692 10.4981L36.1089 10.8401V10.8401L35.1692 10.4981ZM36.3645 13.0615L36.0225 14.0012L36.3645 13.0615ZM36.71 13.1873L37.052 12.2476L37.052 12.2476L36.71 13.1873ZM38.0144 15.2807L39.0087 15.3878V15.3877L38.0144 15.2807ZM37.6941 18.256L38.6884 18.363V18.363L37.6941 18.256ZM38.2229 19.8372L37.493 20.5208L37.493 20.5208L38.2229 19.8372ZM40.8554 22.6479L41.5852 21.9643L41.5852 21.9643L40.8554 22.6479ZM42.7072 23.2419L42.5111 22.2613H42.5111L42.7072 23.2419ZM48.7984 22.0241L48.9944 23.0047H48.9944L48.7984 22.0241ZM49.4875 22.0075L49.339 22.9964L49.4875 22.0075ZM55.2513 22.8731L55.3998 21.8842H55.3998L55.2513 22.8731ZM56.2384 22.7724L55.8934 21.8338V21.8338L56.2384 22.7724ZM17.0677 53.6906L16.5114 54.5216L17.0471 54.8802L17.5949 54.5403L17.0677 53.6906ZM19.0685 8.56688L19.7498 7.83488L19.2213 7.34295L18.5881 7.68985L19.0685 8.56688ZM21.0192 10.3825L21.7005 9.65049L21.7005 9.65049L21.0192 10.3825ZM21.4184 10.9L22.2994 10.4268V10.4268L21.4184 10.9ZM22.6798 13.2482L21.7989 13.7214L21.8294 13.7781L21.8669 13.8305L22.6798 13.2482ZM25.1421 16.6859L24.3292 17.2682L24.3292 17.2682L25.1421 16.6859ZM25.6333 21.4952L26.5747 21.158L26.5747 21.158L25.6333 21.4952ZM26.3895 23.6066L27.3309 23.2694V23.2694L26.3895 23.6066ZM25.5611 25.9803L26.0883 26.83L25.5611 25.9803ZM22.8454 27.6655L23.3726 28.5152L23.3726 28.5152L22.8454 27.6655ZM22.5372 27.9009L21.8559 27.1689L21.8559 27.1689L22.5372 27.9009ZM19.8435 30.4082L19.1622 29.6762L19.8435 30.4082ZM16.4701 33.548L17.1514 34.28L17.1514 34.28L16.4701 33.548ZM15.9012 35.5308L14.9354 35.7902V35.7902L15.9012 35.5308ZM16.8582 39.094L15.8925 39.3534L15.8925 39.3534L16.8582 39.094ZM17.4272 40.0392L18.1085 39.3072H18.1085L17.4272 40.0392ZM19.4873 41.9566L20.1686 41.2246H20.1686L19.4873 41.9566ZM20.0075 42.7463L19.0661 43.0835L20.0075 42.7463ZM21.2617 46.2482L22.2031 45.911L21.2617 46.2482ZM22.1349 48.6866L21.1935 49.0238L22.1349 48.6866ZM21.3065 51.0603L21.8338 51.91H21.8338L21.3065 51.0603ZM30.666 35.0975L29.9933 34.3576L29.9933 34.3576L30.666 35.0975ZM33.5345 32.4898L34.2071 33.2298L34.2071 33.2298L33.5345 32.4898ZM30.3985 37.7601L29.5921 38.3515L30.3985 37.7601ZM32.2019 40.2192L31.3954 40.8105L31.3954 40.8105L32.2019 40.2192ZM32.5648 41.7124L33.5527 41.8676V41.8676L32.5648 41.7124ZM31.9307 45.7473L30.9429 45.5921L31.9307 45.7473ZM32.0242 46.6999L31.0853 47.0441L31.0853 47.0441L32.0242 46.6999ZM34.5069 47.8203L34.1439 46.8885L34.5069 47.8203ZM37.9812 46.4667L37.6182 45.5349L37.9812 46.4667ZM38.9244 45.7048L38.0898 45.1539V45.1539L38.9244 45.7048ZM40.9987 42.562L41.8333 43.1128L40.9987 42.562ZM41.2127 42.2916L41.9403 42.9776L41.2127 42.2916ZM44.5267 38.7767L43.7992 38.0907L44.5267 38.7767ZM44.1982 35.7522L44.7616 34.926H44.7616L44.1982 35.7522ZM42.774 34.7812L43.3373 33.9549L43.3152 33.9398L43.2923 33.926L42.774 34.7812ZM40.5312 33.4219L41.0495 32.5667L41.0495 32.5667L40.5312 33.4219ZM39.9379 33.182L39.7162 34.1572L39.7163 34.1572L39.9379 33.182ZM36.894 32.4903L36.604 33.4473L36.6379 33.4575L36.6724 33.4654L36.894 32.4903ZM35.4598 32.0557L35.1698 33.0127H35.1698L35.4598 32.0557ZM33.5129 6.39728C43.6947 7.10129 52.2287 13.8085 55.5948 23.0074L57.473 22.3201C53.8427 12.3993 44.6402 5.16189 33.6509 4.40204L33.5129 6.39728ZM32.6089 5.63029L32.7432 6.19722L34.6893 5.73596L34.5549 5.16902L32.6089 5.63029ZM32.7432 6.19723C32.8638 6.70602 33.1153 7.17445 33.4727 7.55609L34.9325 6.18891C34.8133 6.0617 34.7295 5.90555 34.6893 5.73595L32.7432 6.19723ZM33.4727 7.55609L34.2793 8.41721L35.739 7.05003L34.9325 6.18891L33.4727 7.55609ZM34.2793 8.41721C34.5369 8.69224 34.618 9.08872 34.4891 9.44282L36.3685 10.1269C36.7551 9.06457 36.5118 7.87513 35.739 7.05003L34.2793 8.41721ZM34.4891 9.44282L34.2295 10.1561L36.1089 10.8401L36.3685 10.1269L34.4891 9.44282ZM34.2295 10.1561C33.6628 11.713 34.4656 13.4345 36.0225 14.0012L36.7065 12.1218C36.1876 11.9329 35.92 11.3591 36.1089 10.8401L34.2295 10.1561ZM36.0225 14.0012L36.3679 14.127L37.052 12.2476L36.7065 12.1218L36.0225 14.0012ZM36.3679 14.127C36.8002 14.2843 37.0694 14.7163 37.0202 15.1737L39.0087 15.3877C39.1564 14.0155 38.3489 12.7196 37.052 12.2476L36.3679 14.127ZM37.0202 15.1737L36.6999 18.1489L38.6884 18.363L39.0087 15.3878L37.0202 15.1737ZM36.6999 18.1489C36.6064 19.0173 36.896 19.8833 37.493 20.5208L38.9528 19.1536C38.7538 18.9411 38.6572 18.6525 38.6884 18.363L36.6999 18.1489ZM37.493 20.5208L40.1255 23.3315L41.5852 21.9643L38.9528 19.1536L37.493 20.5208ZM40.1255 23.3315C40.8349 24.089 41.8855 24.4259 42.9032 24.2225L42.5111 22.2613C42.1719 22.3291 41.8217 22.2168 41.5852 21.9643L40.1255 23.3315ZM42.9032 24.2225L48.9944 23.0047L48.6024 21.0435L42.5111 22.2613L42.9032 24.2225ZM48.9944 23.0047C49.1079 22.982 49.2245 22.9792 49.339 22.9964L49.636 21.0186C49.2926 20.967 48.9429 20.9754 48.6023 21.0435L48.9944 23.0047ZM49.339 22.9964L55.1028 23.862L55.3998 21.8842L49.636 21.0186L49.339 22.9964ZM55.1028 23.862C55.6012 23.9368 56.1104 23.8849 56.5835 23.711L55.8934 21.8338C55.7357 21.8918 55.5659 21.9091 55.3998 21.8842L55.1028 23.862ZM56.5835 23.711L56.8789 23.6024L56.1888 21.7252L55.8934 21.8338L56.5835 23.711ZM17.6239 52.8596C10.8141 48.3014 6.33398 40.5417 6.33398 31.736H4.33398C4.33398 41.237 9.17062 49.608 16.5114 54.5216L17.6239 52.8596ZM6.33398 31.736C6.33398 22.125 11.6716 13.7592 19.549 9.4439L18.5881 7.68985C10.0958 12.342 4.33398 21.3654 4.33398 31.736H6.33398ZM21.7005 9.65049L19.7498 7.83488L18.3872 9.29887L20.3379 11.1145L21.7005 9.65049ZM22.2994 10.4268C22.1436 10.1369 21.9413 9.87466 21.7005 9.65049L20.3379 11.1145C20.4181 11.1892 20.4856 11.2766 20.5375 11.3732L22.2994 10.4268ZM23.5608 12.7749L22.2994 10.4268L20.5375 11.3732L21.7989 13.7214L23.5608 12.7749ZM25.9551 16.1037L23.4928 12.6659L21.8669 13.8305L24.3292 17.2682L25.9551 16.1037ZM26.5162 17.8505C26.5162 17.2239 26.32 16.6131 25.9551 16.1037L24.3292 17.2682C24.4508 17.438 24.5162 17.6417 24.5162 17.8505H26.5162ZM26.5162 20.8209V17.8505H24.5162V20.8209H26.5162ZM26.5747 21.158C26.536 21.0498 26.5162 20.9358 26.5162 20.8209H24.5162C24.5162 21.1656 24.5756 21.5078 24.6919 21.8323L26.5747 21.158ZM27.3309 23.2694L26.5747 21.158L24.6919 21.8323L25.448 23.9438L27.3309 23.2694ZM26.0883 26.83C27.29 26.0844 27.8077 24.6008 27.3309 23.2694L25.448 23.9438C25.6069 24.3876 25.4344 24.8821 25.0338 25.1306L26.0883 26.83ZM23.3726 28.5152L26.0883 26.83L25.0338 25.1306L22.3181 26.8158L23.3726 28.5152ZM23.2185 28.6329C23.266 28.5888 23.3176 28.5493 23.3726 28.5152L22.3181 26.8158C22.153 26.9182 21.9982 27.0365 21.8559 27.1689L23.2185 28.6329ZM20.5248 31.1402L23.2186 28.6329L21.8559 27.1689L19.1622 29.6762L20.5248 31.1402ZM17.1514 34.28L20.5248 31.1402L19.1622 29.6762L15.7888 32.816L17.1514 34.28ZM16.867 35.2714C16.7709 34.9137 16.8804 34.5323 17.1514 34.28L15.7888 32.816C14.9756 33.5729 14.6472 34.7173 14.9354 35.7902L16.867 35.2714ZM17.824 38.8346L16.867 35.2714L14.9354 35.7902L15.8925 39.3534L17.824 38.8346ZM18.1085 39.3072C17.9712 39.1794 17.8727 39.0157 17.824 38.8346L15.8925 39.3534C16.0384 39.8966 16.3341 40.3879 16.7458 40.7711L18.1085 39.3072ZM20.1686 41.2246L18.1085 39.3072L16.7458 40.7711L18.806 42.6886L20.1686 41.2246ZM20.949 42.4091C20.7873 41.9576 20.5197 41.5514 20.1686 41.2246L18.806 42.6886C18.923 42.7976 19.0122 42.9329 19.0661 43.0835L20.949 42.4091ZM22.2031 45.911L20.949 42.4091L19.0661 43.0835L20.3202 46.5853L22.2031 45.911ZM23.0764 48.3494L22.2031 45.911L20.3202 46.5853L21.1935 49.0238L23.0764 48.3494ZM21.8338 51.91C23.0354 51.1644 23.5532 49.6808 23.0764 48.3494L21.1935 49.0238C21.3524 49.4675 21.1798 49.9621 20.7793 50.2106L21.8338 51.91ZM17.5949 54.5403L21.8338 51.91L20.7793 50.2106L16.5404 52.8409L17.5949 54.5403ZM31.3387 35.8374L34.2071 33.2298L32.8618 31.7499L29.9933 34.3576L31.3387 35.8374ZM31.205 37.1687C30.9024 36.7561 30.9601 36.1816 31.3387 35.8374L29.9933 34.3576C28.8575 35.3902 28.6844 37.1136 29.5921 38.3515L31.205 37.1687ZM33.0083 39.6278L31.205 37.1687L29.5921 38.3515L31.3954 40.8105L33.0083 39.6278ZM33.5527 41.8676C33.6767 41.0783 33.4808 40.2721 33.0083 39.6278L31.3954 40.8105C31.5529 41.0253 31.6183 41.294 31.5769 41.5571L33.5527 41.8676ZM32.9186 45.9026L33.5527 41.8676L31.5769 41.5571L30.9429 45.5921L32.9186 45.9026ZM32.9631 46.3556C32.91 46.2108 32.8947 46.0549 32.9186 45.9026L30.9429 45.5921C30.8661 46.0803 30.9152 46.5801 31.0853 47.0441L32.9631 46.3556ZM34.1439 46.8885C33.6705 47.0729 33.138 46.8326 32.963 46.3556L31.0853 47.0441C31.6459 48.5729 33.3527 49.3432 34.87 48.7521L34.1439 46.8885ZM37.6182 45.5349L34.1439 46.8885L34.87 48.7521L38.3443 47.3984L37.6182 45.5349ZM38.0898 45.1539C37.9758 45.3267 37.811 45.4597 37.6182 45.5349L38.3443 47.3984C38.9227 47.1731 39.417 46.7738 39.759 46.2556L38.0898 45.1539ZM40.1641 42.0111L38.0898 45.1539L39.759 46.2556L41.8333 43.1128L40.1641 42.0111ZM40.4851 41.6056C40.3666 41.7313 40.2592 41.867 40.1641 42.0111L41.8333 43.1128C41.865 43.0647 41.9008 43.0195 41.9403 42.9776L40.4851 41.6056ZM43.7992 38.0907L40.4851 41.6056L41.9403 42.9776L45.2543 39.4627L43.7992 38.0907ZM43.6349 36.5785C44.1429 36.9249 44.221 37.6433 43.7992 38.0907L45.2543 39.4627C46.5198 38.1206 46.2857 35.9652 44.7616 34.926L43.6349 36.5785ZM42.2107 35.6074L43.6349 36.5785L44.7616 34.926L43.3373 33.9549L42.2107 35.6074ZM40.0129 34.2771L42.2557 35.6364L43.2923 33.926L41.0495 32.5667L40.0129 34.2771ZM39.7163 34.1572C39.8209 34.181 39.9211 34.2215 40.0129 34.2771L41.0495 32.5667C40.7741 32.3998 40.4736 32.2783 40.1595 32.2069L39.7163 34.1572ZM36.6724 33.4654L39.7162 34.1572L40.1595 32.2069L37.1156 31.5151L36.6724 33.4654ZM35.1698 33.0127L36.604 33.4473L37.184 31.5332L35.7498 31.0986L35.1698 33.0127ZM34.2071 33.2298C34.4675 32.9931 34.8331 32.9106 35.1698 33.0127L35.7498 31.0986C34.7396 30.7925 33.6428 31.0398 32.8618 31.7499L34.2071 33.2298Z" fill="white"/>
<circle cx="31.734" cy="31.7359" r="26.4" stroke="white" stroke-width="2"/>
</g>
</svg>
