<svg  viewBox="0 0 130 26" fill="none" xmlns="http://www.w3.org/2000/svg">
<g clip-path="url(#clip0_1_20813)">
<path d="M7.54787 7.04688C9.63993 7.04688 11.384 8.10989 12.1962 9.25867V7.33383H15.3916V21.6944H13.2214C12.6553 21.6944 12.1962 21.2413 12.1962 20.681V19.7715C11.384 20.9193 9.63993 21.9815 7.54787 21.9815C3.56918 21.9815 0.546875 18.6219 0.546875 14.5146C0.546875 10.4073 3.56918 7.04688 7.54787 7.04688ZM8.12917 9.91947C5.54321 9.91947 3.79993 11.9294 3.79993 14.5146C3.79993 17.099 5.54321 19.1102 8.12917 19.1102C10.7143 19.1102 12.4584 17.099 12.4584 14.5146C12.4584 11.9294 10.7145 9.91947 8.12917 9.91947Z" fill="#77C159"/>
<path d="M19.0195 7.33383H22.2157V9.28673C23.0864 7.85115 24.7431 7.04688 26.6315 7.04688C30.0008 7.04688 32.1803 9.40199 32.1803 13.0498V21.6939H30.0094C29.4434 21.6939 28.9841 21.2401 28.9841 20.6805V13.5668C28.9841 11.2981 27.8215 9.91947 25.9636 9.91947C23.8427 9.91947 22.2158 11.5566 22.2158 14.6291V21.6939H20.044C19.4788 21.6939 19.0195 21.2401 19.0195 20.6805V7.33383Z" fill="#77C159"/>
<path d="M41.7087 7.04879C43.7999 7.04879 45.544 8.1118 46.357 9.26058V0.15625H49.5516V21.6963H47.3815C46.8163 21.6963 46.357 21.2433 46.357 20.6829V19.7734C45.544 20.9212 43.7999 21.9834 41.7087 21.9834C37.7282 21.9834 34.707 18.6238 34.707 14.5165C34.707 10.4092 37.7284 7.04879 41.7087 7.04879ZM42.2901 9.92138C39.705 9.92138 37.9617 11.9314 37.9617 14.5165C37.9617 17.1009 39.705 19.1121 42.2901 19.1121C44.8743 19.1121 46.6176 17.1009 46.6176 14.5165C46.6176 11.9314 44.8743 9.92138 42.2901 9.92138Z" fill="#77C159"/>
<path d="M53.1836 7.33879H56.3789V9.89494C56.9306 8.25785 58.5576 7.19531 60.2141 7.19531C60.6198 7.19531 61.0279 7.22433 61.4635 7.31025V10.5554C60.91 10.3829 60.4468 10.297 59.8663 10.297C58.0356 10.297 56.3791 11.8199 56.3791 14.6919V21.6989H54.2082C53.643 21.6989 53.1838 21.245 53.1838 20.6855V7.33879H53.1836Z" fill="#77C159"/>
<path d="M70.0798 21.9815C65.7812 21.9815 62.4688 18.678 62.4688 14.5154C62.4688 10.3507 65.7812 7.04688 70.0798 7.04688C74.3801 7.04688 77.6909 10.3499 77.6909 14.5154C77.6909 18.678 74.3801 21.9815 70.0798 21.9815ZM70.0798 19.0531C72.6362 19.0531 74.4379 17.0704 74.4379 14.5154C74.4379 11.9597 72.6361 9.97702 70.0798 9.97702C67.4948 9.97702 65.6938 11.9597 65.6938 14.5154C65.6938 17.0704 67.4948 19.0531 70.0798 19.0531Z" fill="#77C159"/>
<path d="M81.8763 4.20646C80.7145 4.20646 79.7266 3.25966 79.7266 2.08075C79.7266 0.931969 80.7145 -0.015625 81.8763 -0.015625C83.067 -0.015625 83.9971 0.932129 83.9971 2.08075C83.9971 3.25966 83.067 4.20646 81.8763 4.20646ZM80.2798 7.3362H83.4743V21.6968H81.3042C80.7381 21.6968 80.2798 21.242 80.2798 20.6833V7.3362Z" fill="#77C159"/>
<path d="M93.1016 7.04879C95.1936 7.04879 96.9369 8.1118 97.7507 9.26058V0.15625H100.946V21.6963H98.7759C98.2088 21.6963 97.7507 21.2433 97.7507 20.6829V19.7734C96.9369 20.9212 95.1936 21.9834 93.1016 21.9834C89.1229 21.9834 86.1016 18.6238 86.1016 14.5165C86.1016 10.4092 89.1229 7.04879 93.1016 7.04879ZM93.683 9.92138C91.0988 9.92138 89.3556 11.9314 89.3556 14.5165C89.3556 17.1009 91.0988 19.1121 93.683 19.1121C96.269 19.1121 98.0123 17.1009 98.0123 14.5165C98.0121 11.9314 96.269 9.92138 93.683 9.92138Z" fill="#77C159"/>
<path d="M106.502 9.16306H103.375V7.25751H106.502V3.24219H108.546V7.25751H112.812V9.16306H108.546V17.5105C108.546 19.2717 109.336 19.9647 110.971 19.9647C111.555 19.9647 112.344 19.849 112.812 19.6477V21.4668C112.139 21.727 111.438 21.8426 110.649 21.8426C108.167 21.8426 106.502 20.4263 106.502 17.6825V9.16306Z" fill="white" fill-opacity="0.8"/>
<path d="M129.435 7.25781L122.599 21.6991H120.993L114.156 7.25781H116.435L121.781 18.7238L127.127 7.25781H129.435Z" fill="white" fill-opacity="0.8"/>
</g>
<defs>
<clipPath id="clip0_1_20813">
<rect width="129" height="22" fill="white" transform="translate(0.5)"/>
</clipPath>
</defs>
</svg>
