<svg  viewBox="0 0 138 26" fill="none" xmlns="http://www.w3.org/2000/svg">
<g clip-path="url(#clip0_1_20825)">
<path d="M71.3751 9.42969V17.1559L64.9375 12.8344L71.3751 9.42969Z" fill="#244A9A"/>
<path d="M58.5703 9.42969V17.1559L64.9387 12.8344L58.5703 9.42969Z" fill="#95A948"/>
<path d="M64.9394 1.70312L56.6328 6.09003H64.9394V1.70312Z" fill="#FFDE14"/>
<path d="M64.9375 1.70312L73.2441 6.09003H64.9375V1.70312Z" fill="#F0C3C0"/>
<path d="M64.9405 12.8359L56.7031 18.3359H64.9405V12.8359Z" fill="#D3D80E"/>
<path d="M64.9375 12.8359L73.2441 18.3359H64.9375V12.8359Z" fill="#2DAFE6"/>
<path d="M56.7031 18.3359H64.9405V23.705L56.7031 18.3359Z" fill="#FBEF82"/>
<path d="M73.2441 18.3359H64.9375V23.705L73.2441 18.3359Z" fill="#AFDFF9"/>
<path d="M56.7031 6.09375H65.0097V10.4807L56.7031 6.09375Z" fill="#F18825"/>
<path d="M73.2441 6.09375H64.9375V10.4807L73.2441 6.09375Z" fill="#E94287"/>
<path d="M73.2471 18.3378V6.09375L64.9405 10.4807L56.7031 6.09375V18.3378L58.5721 19.5818V9.43303L64.9405 12.8378L71.3781 9.43303V19.5818L73.2471 18.3378Z" fill="white" fill-opacity="0.8"/>
<path d="M97.6797 13.8824C98.3719 13.6205 98.9949 13.2277 99.4794 12.6384C100.033 11.9836 100.31 11.1324 100.31 10.2158C100.31 9.62649 100.172 9.0372 99.964 8.57887C99.7563 8.05506 99.4102 7.6622 98.9949 7.26934C98.5796 6.94196 98.0258 6.61458 97.4028 6.41816C96.7798 6.22173 96.0876 6.15625 95.3262 6.15625H89.9961V19.6443H91.8651V7.9241H95.3262C96.3645 7.9241 97.1259 8.12053 97.6105 8.51339C98.095 8.90625 98.3719 9.49553 98.3719 10.2158C98.3719 11.0015 98.095 11.5253 97.6105 11.9182C97.0567 12.311 96.2953 12.5074 95.3262 12.5074H93.0418V14.2098H95.8107L98.4411 19.5789H100.518L97.6797 13.8824Z" fill="white" fill-opacity="0.8"/>
<path d="M101.906 6.22656V7.92894H106.198V19.6492H108.067V7.92894H112.359V6.22656H101.906Z" fill="white" fill-opacity="0.8"/>
<path d="M82.2442 6.22656H80.6521L75.1836 19.6492H77.191L78.9216 15.4587H84.1132L85.8437 19.6492H87.7819L82.2442 6.22656ZM79.5445 13.8873L81.4827 9.10752L83.421 13.8873H79.5445Z" fill="white" fill-opacity="0.8"/>
<path d="M53.8622 14.4103C53.6545 13.952 53.3776 13.5592 53.0315 13.2318C52.6854 12.9044 52.2701 12.6425 51.7855 12.3806C51.301 12.1842 50.7472 11.9877 50.1934 11.9222L47.6322 11.5949C47.3553 11.5294 47.0784 11.5294 46.8016 11.3984C46.5939 11.333 46.3862 11.202 46.1786 11.0711C46.0401 10.9401 45.9017 10.7437 45.7632 10.5472C45.694 10.3508 45.6248 10.0889 45.6248 9.76153C45.6248 9.43415 45.694 9.10677 45.8324 8.91034C45.9709 8.64844 46.1786 8.45201 46.3862 8.25558C46.6631 8.05915 47.0092 7.86273 47.3553 7.73177C47.7707 7.60082 48.186 7.60082 48.6013 7.60082C49.1551 7.60082 49.7089 7.6663 50.1242 7.86272C50.5395 7.99368 50.8856 8.25558 51.1625 8.51749C51.3702 8.71391 51.5086 8.91034 51.5778 9.17225C51.6471 9.36868 51.7855 9.63058 51.7855 9.95796L51.8547 10.2853H53.7237L53.6545 9.82701C53.5853 9.3032 53.516 8.84487 53.3084 8.45201C53.1007 8.05915 52.8238 7.73177 52.5469 7.40439C52.1316 6.94606 51.5086 6.5532 50.8164 6.29129C50.1242 6.02939 49.3627 5.89844 48.6013 5.89844C47.9091 5.89844 47.2861 6.02939 46.6631 6.22582C46.0401 6.42225 45.4863 6.74963 45.0018 7.14249C44.6557 7.46987 44.3096 7.86272 44.0327 8.25558C43.7558 8.71391 43.6174 9.23772 43.6174 9.82701C43.6174 10.3508 43.6866 10.8746 43.8942 11.2675C44.1019 11.6603 44.3788 12.0532 44.7249 12.3806C45.071 12.708 45.4863 12.9044 45.9017 13.1008C46.317 13.2972 46.8016 13.3627 47.3553 13.4282L49.8473 13.7556C50.1934 13.8211 50.5395 13.8865 50.8164 14.0175C51.0933 14.1484 51.301 14.2794 51.5086 14.4758C51.7163 14.6722 51.8547 14.8687 51.9239 15.0651C51.9932 15.2615 52.0624 15.5234 52.0624 15.7853C52.0624 16.1127 51.9932 16.4401 51.8547 16.6365C51.7163 16.8984 51.5778 17.0949 51.3702 17.2913C51.0241 17.5532 50.678 17.7496 50.1934 17.8806C49.7089 18.0115 49.1551 18.077 48.6013 18.077C48.1168 18.077 47.563 18.0115 47.1477 17.8151C46.6631 17.6842 46.317 17.4222 45.9709 17.1603C45.7632 16.9639 45.5556 16.702 45.4171 16.3746C45.2787 16.1127 45.1402 15.7853 45.1402 15.458L45.071 15.0651H43.1328L43.202 15.5234C43.2713 16.0472 43.4097 16.5711 43.6174 17.0294C43.825 17.4877 44.1711 17.8806 44.5172 18.2734C45.0018 18.7973 45.6248 19.1246 46.317 19.3865C47.0092 19.6484 47.7707 19.7794 48.6013 19.7794C49.432 19.7794 50.1934 19.6484 50.8856 19.452C51.5778 19.2556 52.2008 18.8627 52.6854 18.4044C53.0315 18.077 53.3084 17.6842 53.516 17.2913C53.7237 16.833 53.8622 16.3092 53.8622 15.7199C54.139 15.327 54.0698 14.8687 53.8622 14.4103Z" fill="white" fill-opacity="0.8"/>
<path d="M130.766 19.7098H132.012L137.48 6.15625H136.027L131.389 17.811L126.613 6.15625H116.16V7.4003H120.66V19.7098H121.975V7.4003H125.713L130.766 19.7098Z" fill="white" fill-opacity="0.8"/>
<path d="M71.3751 9.43303V19.5818L73.2441 18.3378V6.09375L64.9375 10.4807V12.8378L71.3751 9.43303Z" fill="white" fill-opacity="0.8"/>
<path d="M1.32411 12.5093C0.424232 12.2474 0.216568 11.5272 0.216568 10.9379V10.7414C0.216568 9.62835 0.839562 9.03906 2.15477 9.03906H2.77776C3.81609 9.03906 4.43908 9.43192 4.43908 10.4795C4.43908 10.7414 4.30064 10.9379 3.95453 10.9379C3.60842 10.9379 3.46998 10.7414 3.46998 10.4795C3.46998 10.0867 3.19309 9.89025 2.77776 9.89025H2.15477C1.46256 9.89025 1.11645 10.1522 1.11645 10.7414V10.9379C1.11645 11.3307 1.39333 11.5926 1.67022 11.6581L3.46998 12.3129C4.23141 12.5748 4.64674 13.0986 4.64674 13.9498V14.2772C4.64674 15.3903 4.02375 16.045 2.70854 16.045H1.73944C0.701118 16.045 0.078125 15.6522 0.078125 14.6045C0.078125 14.3426 0.216568 14.1462 0.562675 14.1462C0.908783 14.1462 1.04723 14.3426 1.04723 14.6045C1.04723 14.9974 1.32411 15.1938 1.73944 15.1938H2.77776C3.46998 15.1938 3.81609 14.8664 3.81609 14.2772V13.9498C3.81609 13.5569 3.60842 13.295 3.33153 13.1641L1.32411 12.5093Z" fill="white" fill-opacity="0.8"/>
<path d="M8.03931 10.9375C9.07763 10.9375 9.70062 11.5268 9.70062 12.4435V15.5208C9.70062 15.7827 9.56218 15.9792 9.21607 15.9792H7.34709C6.37799 15.9792 5.82422 15.5863 5.82422 14.6696V13.9494C5.82422 13.0327 6.44721 12.6399 7.34709 12.6399H8.80075V12.4435C8.80075 11.9851 8.52386 11.7887 8.10853 11.7887H6.79332C6.51643 11.7887 6.30877 11.6577 6.30877 11.3958C6.30877 11.1339 6.51643 11.003 6.79332 11.003H8.03931V10.9375ZM8.73152 15.128V13.4256H7.27787C6.86254 13.4256 6.65488 13.622 6.65488 13.9494V14.6696C6.65488 14.9316 6.86254 15.1935 7.27787 15.1935H8.73152V15.128Z" fill="white" fill-opacity="0.8"/>
<path d="M16.066 12.7054C16.066 12.1161 15.7891 11.7887 15.0969 11.7887H14.5431V15.6518C14.5431 15.9137 14.4047 16.1101 14.0586 16.1101C13.7124 16.1101 13.574 15.9137 13.574 15.6518V11.7887H12.0511V15.6518C12.0511 15.9137 11.9127 16.1101 11.5666 16.1101C11.2205 16.1101 11.082 15.9137 11.082 15.6518V11.3958C11.082 11.1339 11.2205 10.9375 11.5666 10.9375H15.0969C16.3429 10.9375 16.9659 11.5923 16.9659 12.7054V15.6518C16.9659 15.9137 16.8274 16.1101 16.4813 16.1101C16.1352 16.1101 15.9968 15.9137 15.9968 15.6518V12.7054H16.066Z" fill="white" fill-opacity="0.8"/>
<path d="M19.808 16.0428C18.8389 16.0428 18.2852 15.7154 18.2852 14.8642C18.2852 14.6023 18.4236 14.4059 18.7697 14.4059C19.1158 14.4059 19.185 14.6023 19.2543 14.8642C19.2543 15.0606 19.4619 15.2571 19.8773 15.2571H20.7079C21.1925 15.2571 21.3309 14.9952 21.3309 14.7333V14.4059C21.3309 14.144 21.1925 14.0785 20.9848 13.9475L19.3927 13.5547C18.7697 13.3583 18.4928 12.9654 18.4928 12.3761V12.1142C18.4928 11.1975 19.0466 10.8047 20.0157 10.8047H20.5695C21.5386 10.8047 22.0923 11.1321 22.0923 11.9833C22.0923 12.2452 22.0231 12.4416 21.6078 12.4416C21.2617 12.4416 21.1925 12.2452 21.1232 11.9833C21.1232 11.7868 20.9156 11.5904 20.5695 11.5904H20.0157C19.5311 11.5904 19.3927 11.8523 19.3927 12.1142V12.3761C19.3927 12.5725 19.5311 12.7035 19.7388 12.8344L21.3309 13.2273C21.9539 13.4237 22.3 13.7511 22.3 14.4059V14.7333C22.3 15.6499 21.7462 16.0428 20.7771 16.0428H19.808Z" fill="white" fill-opacity="0.8"/>
<path d="M24.3072 14.2094C24.3072 14.7987 24.5841 15.1261 25.2763 15.1261H26.5223V11.263C26.5223 11.0011 26.6608 10.8047 27.0069 10.8047C27.353 10.8047 27.4914 11.0011 27.4914 11.263V15.519C27.4914 15.7809 27.353 15.9773 27.0069 15.9773H25.3455C24.0303 15.9773 23.4766 15.3225 23.4766 14.2094V11.263C23.4766 11.0011 23.615 10.8047 23.9611 10.8047C24.3072 10.8047 24.4457 11.0011 24.4457 11.263V14.2094H24.3072Z" fill="white" fill-opacity="0.8"/>
<path d="M32.0592 12.7054C32.0592 12.1161 31.7823 11.7887 31.0901 11.7887H29.8441V15.6518C29.8441 15.9137 29.7057 16.1101 29.3596 16.1101C29.0134 16.1101 28.875 15.9137 28.875 15.6518V11.3958C28.875 11.1339 29.0134 10.9375 29.3596 10.9375H31.0209C32.2669 10.9375 32.8898 11.5923 32.8898 12.7054V15.6518C32.8898 15.9137 32.7514 16.1101 32.4053 16.1101C32.0592 16.1101 31.9207 15.9137 31.9207 15.6518V12.7054H32.0592Z" fill="white" fill-opacity="0.8"/>
<path d="M38.3597 16.5078C38.3597 17.5554 37.7367 18.4066 36.4215 18.4066H35.3139C35.1063 18.4066 34.8294 18.2757 34.8294 18.0138C34.8294 17.7519 35.0371 17.6209 35.3139 17.6209H36.4907C37.1829 17.6209 37.529 17.1626 37.529 16.5733V16.0495H36.283C35.0371 16.0495 34.4141 15.3947 34.4141 14.2816V12.9066C34.4141 11.7935 35.0371 11.0078 36.3523 11.0078H38.0136C38.3597 11.0078 38.4981 11.2042 38.4981 11.4661V16.5078H38.3597ZM36.283 11.728C35.5908 11.728 35.3139 12.1864 35.3139 12.7757V14.1507C35.3139 14.74 35.5908 15.0673 36.283 15.0673H37.529V11.728H36.283Z" fill="white" fill-opacity="0.8"/>
</g>
<defs>
<clipPath id="clip0_1_20825">
<rect width="138" height="22" fill="white" transform="translate(0 2)"/>
</clipPath>
</defs>
</svg>
