<svg width="141" height="132" viewBox="0 0 141 132" fill="none" xmlns="http://www.w3.org/2000/svg">
<path d="M125.524 47.3792C121.735 46.2475 118.497 46.9449 115.3 49.103C111.905 44.971 108.312 42.2339 104.536 41.0891C100.746 39.9574 97.0875 40.5233 93.2581 42.4971C90.4947 38.5494 87.3365 35.9439 83.5467 34.799C79.77 33.6805 75.6775 34.1147 71.2034 35.8912C69.0716 32.1409 66.3345 29.6538 62.5578 28.5221C58.7812 27.4036 54.2676 27.7062 49.1618 29.2985C47.6748 25.7324 45.3457 23.3769 41.569 22.2452C30.66 18.6527 10.5923 31.2066 2.61787 56.2748C-4.50123 81.593 5.35498 103.108 16.4481 106.109C20.238 107.24 23.4751 106.543 26.6728 104.385C30.0679 108.517 33.6603 111.254 37.437 112.399C41.2268 113.53 44.8851 112.964 48.7144 110.991C51.4778 114.925 54.6492 117.544 58.4259 118.689C62.2025 119.82 66.295 119.373 70.7691 117.596C72.9009 121.347 75.638 123.834 79.4147 124.966C83.1914 126.084 87.705 125.781 92.8107 124.189C94.2977 127.742 96.6269 130.111 100.404 131.242C111.313 134.835 129.683 121.781 137.657 96.7129C144.776 71.3815 136.604 50.3795 125.524 47.3792Z" fill="#070E14"/>
<path d="M68.8904 38.3967C67.7982 34.0805 76.9701 35.5807 81.0889 24.9349C83.6813 18.2238 90.5241 -1.04124 103.196 0.103604L103.96 3.775C103.96 3.775 96.3536 2.15643 91.8926 15.684C84.0629 39.4758 97.1958 40.2917 95.9193 45.8843C94.6692 51.3454 69.9958 42.6998 68.8904 38.3967Z" fill="#070E14"/>
<path d="M63.7452 43.1641L41.4141 56.5338L63.982 59.8104L63.7452 43.1641Z" fill="#FA4A00"/>
<path d="M93.8015 52.1719L105.105 75.6215L84.4453 65.9364L93.8015 52.1719Z" fill="#FA4A00"/>
<path d="M75.3691 83.9472L72.4873 68.6562L61.6836 79.8415L75.3691 83.9472Z" fill="#FA4A00"/>
<path d="M88.2369 97.7649L83.7365 102.989L85.0393 97.6333C82.4206 97.4622 79.2887 97.0806 75.6173 96.37L71.2485 101.489L72.6302 95.7515C70.2878 95.2251 67.7876 94.5672 65.0637 93.7645C62.2739 92.9354 59.7737 92.0801 57.484 91.2248L55.4838 96.7779L54.6548 90.1325C51.1544 88.6982 48.3384 87.3165 46.0618 86.04L44.2327 91.1853L43.3642 84.4215C39.5217 81.9607 38.0742 80.25 38.0742 80.25C38.4953 84.8557 40.8113 91.0142 45.9302 96.3305L49.4043 91.6458L47.8252 98.1465C50.4833 100.476 53.7599 102.568 57.7603 104.187L64.1294 97.3701L65.34 106.437C69.5246 107.226 73.4329 107.226 76.9727 106.687L79.1703 100.568L79.4335 106.213C86.9079 104.476 92.4347 100.476 94.8955 97.278C94.8823 97.2516 92.6716 97.8043 88.2369 97.7649Z" fill="#FA4A00"/>
</svg>
