<svg width="124" height="123" viewBox="0 0 124 123" fill="none" xmlns="http://www.w3.org/2000/svg">
<path d="M92.5386 27.9267C90.749 28.2425 89.2357 28.8215 87.9461 29.6242C83.8009 26.5713 79.3531 25.1764 75.0238 25.9397C71.6813 26.5318 68.7337 28.3346 66.2466 31.0849C62.1936 27.953 57.93 26.5187 53.7849 27.2556C49.2845 28.0451 45.5209 31.2823 42.7049 36.2565C39.7309 34.8748 36.678 34.3615 33.6645 34.8879C29.8615 35.559 26.5717 37.8092 23.8873 41.2306C22.0976 40.4148 20.0974 40.1516 17.8341 40.5595C5.22759 42.7834 -1.90468 62.1537 1.91148 83.8137C5.72764 105.487 19.0447 121.251 31.6643 119.028C33.3224 118.738 34.7304 118.172 35.9147 117.396C40.073 120.449 44.5077 121.857 48.8502 121.094C51.6531 120.607 54.1797 119.238 56.3904 117.198C60.9303 121.304 65.8255 123.304 70.5628 122.462C75.6554 121.567 79.8005 117.527 82.7087 111.422C85.1958 112.316 87.7223 112.593 90.2226 112.145C94.1177 111.461 97.4865 109.106 100.21 105.526C102.053 106.474 104.105 106.829 106.382 106.421C118.989 104.197 126.121 84.8269 122.305 63.1538C118.462 41.4675 105.145 25.7028 92.5386 27.9267Z" fill="#070E14"/>
<path d="M49.7324 31.9467C49.7719 31.8151 49.6929 32.1046 49.785 31.894C49.8508 31.7624 49.943 31.4598 50.0351 31.0387C50.2193 30.1965 50.364 28.7885 50.0745 27.0251C50.0087 26.5777 49.9035 26.1171 49.785 25.6303C49.7324 25.3934 49.6403 25.1434 49.5745 24.8934C49.4692 24.5775 49.3771 24.2617 49.2718 23.9327C48.7718 22.4063 48.3638 20.7351 48.1138 19.0112C47.8506 17.2742 47.7454 15.4319 47.877 13.537C48.0086 11.6421 48.3902 9.66821 49.206 7.74697C50.0087 5.83889 51.3378 3.95712 53.1801 2.68068C54.9829 1.39109 57.1936 0.851562 58.9965 0.851562C61.2203 0.851562 62.931 1.53584 64.4049 2.49646C65.8524 3.45708 66.9314 4.70719 67.6289 6.00995C68.3395 7.32587 68.6421 8.72074 68.5895 9.94455C68.55 11.1815 68.1947 12.1948 67.7868 12.9317C67.392 13.6818 66.9577 14.1555 66.6682 14.4713C66.3656 14.774 66.1945 14.9319 66.1945 14.9319L64.7733 13.5896C64.7733 13.5896 64.8654 13.4449 65.0628 13.1817C65.2207 12.9054 65.4708 12.5106 65.6287 11.971C65.7997 11.4447 65.8787 10.7867 65.7603 10.063C65.6418 9.35238 65.2997 8.56283 64.7207 7.8654C64.1417 7.1548 63.3127 6.52317 62.3652 6.14155C61.8915 5.94416 61.3914 5.81258 60.8914 5.75994C60.6413 5.73362 60.3913 5.72046 60.1413 5.73362C59.8781 5.74678 59.6413 5.78625 59.4965 5.81257C57.1805 6.2863 56.0093 7.72064 55.5224 9.91822C55.0619 12.129 55.4566 14.8266 56.2725 17.1558C56.6804 18.3401 57.1673 19.4455 57.7069 20.4587L57.9437 20.9193L57.97 20.9719C57.9569 20.9456 58.0095 21.064 57.9569 20.9325L57.97 20.9719L58.0358 21.1167L58.1674 21.393C58.3385 21.7615 58.5096 22.1299 58.6543 22.4984C58.957 23.2353 59.2202 23.959 59.4307 24.6828C60.3255 27.5647 60.4966 30.2228 60.365 32.144C60.3124 33.1047 60.1939 33.8942 60.0623 34.4732C59.9702 34.9996 59.7465 35.6575 59.786 35.526L49.7324 31.9467Z" fill="#070E14"/>
<path d="M53.5581 57.5645C41.4122 58.933 31.8192 58.0908 20.1602 54.1563C20.1602 54.1431 38.754 81.0536 53.5581 57.5645Z" fill="#FA4A00"/>
<path d="M64.6758 55.6042C76.5585 52.7355 85.283 48.6693 94.8892 40.9844C94.8892 40.9844 86.6253 72.619 64.6758 55.6042Z" fill="#FA4A00"/>
<path d="M69.0768 78.6602L61.1155 67.8828L57.3125 80.7262L69.0768 78.6602Z" fill="#FA4A00"/>
<path d="M94.6708 71.9453C92.9864 78.1433 91.3679 84.1833 89.8019 90.026C88.2097 89.7891 86.5648 89.447 84.8672 88.9864C83.7092 91.6446 82.5644 94.2369 81.4327 96.7372C79.9325 95.9345 78.3929 95.0396 76.8007 94.079C75.3795 96.5266 73.9846 98.8558 72.5897 101.067C70.5632 99.9612 68.4841 98.7242 66.326 97.3556C64.7732 99.3822 63.2336 101.251 61.7071 102.988C59.6543 101.396 57.5357 99.6848 55.3644 97.8689C54.1932 99.3295 53.0484 100.685 51.9167 101.948C49.9954 99.9875 48.0348 97.9478 46.0346 95.8424C44.5871 96.8556 43.1527 97.7373 41.7447 98.5005C38.2706 93.5395 34.6782 88.4206 30.9805 83.1701C33.9939 86.2493 36.9679 89.1707 39.8761 91.9341C41.3367 91.1577 42.8106 90.2629 44.2975 89.2364C46.3372 91.3419 48.3374 93.3684 50.2981 95.316C51.4693 94.0396 52.6668 92.671 53.8643 91.2103C56.075 93.0131 58.2462 94.7107 60.3517 96.3029C61.9308 94.5659 63.5231 92.6842 65.1285 90.6445C67.3392 91.9999 69.4842 93.2368 71.5502 94.3291C72.9845 92.1183 74.4452 89.7891 75.9058 87.3284C77.5376 88.289 79.1298 89.1707 80.6695 89.9734C81.8406 87.4731 83.0249 84.8808 84.2224 82.2095C85.9726 82.67 87.6701 82.999 89.3019 83.2359C91.0915 79.6434 92.8811 75.8667 94.6708 71.9453Z" fill="#FA4A00"/>
</svg>
