<svg width="114" height="132" viewBox="0 0 114 132" fill="none" xmlns="http://www.w3.org/2000/svg">
<path d="M94.5794 36.4409C91.2633 35.3882 88.1182 36.4672 85.3285 39.428C82.5519 35.3355 79.3542 32.6248 75.9592 32.1116C72.5509 31.5852 69.327 33.3354 66.4977 36.8752C63.6685 32.9538 60.4314 30.6641 56.9968 30.6641C53.5623 30.6641 50.3251 32.9538 47.4959 36.8752C44.6667 33.3354 41.4427 31.5852 38.0345 32.1116C34.6262 32.6379 31.4417 35.3487 28.6651 39.428C25.8886 36.4804 22.7304 35.3882 19.4274 36.4409C8.59743 40.6782 0.320312 61.8249 0.320312 81.1821C0.320312 100.552 8.59743 121.699 19.4274 125.936C22.7435 126.989 25.8886 125.91 28.6651 122.949C31.4417 127.042 34.6394 129.753 38.0345 130.279C41.4427 130.805 44.6667 129.055 47.4959 125.515C50.3251 129.437 53.5623 131.74 56.9968 131.726C60.4314 131.726 63.6685 129.437 66.4977 125.515C69.327 129.055 72.5509 130.805 75.9592 130.279C79.3674 129.753 82.5519 127.042 85.3285 122.949C88.1051 125.897 91.2633 126.989 94.5794 125.936C105.409 121.699 113.686 100.552 113.686 81.1821C113.673 61.8249 105.396 40.6782 94.5794 36.4409Z" fill="#070E14"/>
<path d="M52.3008 41.5159C56.1433 -13.6736 82.7116 -2.73836 78.7112 14.3554C78.3033 16.1056 75.1056 15.0133 75.303 13.579C76.461 5.24923 65.7626 -3.55423 62.2754 23.5668C61.499 29.7648 62.5781 35.7916 62.7492 41.8317L52.3008 41.5159Z" fill="#070E14"/>
<path d="M62.2432 84.6013L56.9927 74.4688L51.7422 84.6013H62.2432Z" fill="#FA4A00"/>
<path d="M79.3515 94.0814L76.0222 89.7125C71.5349 90.6863 66.4686 91.5154 60.8365 91.8312L57.0598 98.2397L53.2174 91.9233C49.0196 91.7917 44.5718 91.3311 39.8477 90.4495L37.0842 94.0814C32.0706 92.8839 27.9255 90.0678 22.7539 85.8438C22.7539 85.8438 23.2408 87.0807 24.254 89.0678C28.1492 96.7922 35.3472 101.911 43.677 104.49L46.5193 100.595L49.6381 105.846C55.5465 106.78 61.7182 106.543 67.5214 105.135L70.6927 100.135L73.0351 103.398C81.2332 100.148 88.0497 94.3051 91.1815 85.8438C84.9441 91.9233 79.3515 94.0814 79.3515 94.0814Z" fill="#FA4A00"/>
<path d="M51.3898 66.5726C51.3898 66.5726 28.2692 62.0063 21.2422 55.9531C21.2422 55.9531 31.8616 86.7324 51.3898 66.5726Z" fill="#FA4A00"/>
<path d="M62.5898 66.5726C62.5898 66.5726 85.7105 62.0063 92.7375 55.9531C92.7506 55.9531 82.118 86.7324 62.5898 66.5726Z" fill="#FA4A00"/>
</svg>
