<svg width="141" height="136" viewBox="0 0 141 136" fill="none" xmlns="http://www.w3.org/2000/svg">
<path d="M105.734 31.9435C101.852 32.7199 99.3252 34.8385 97.4961 38.2336C92.5614 36.1676 88.1136 35.4175 84.2448 36.1676C80.376 36.944 77.402 39.1415 74.9281 42.6682C70.6514 40.4706 66.6247 39.6416 62.7559 40.3917C58.8871 41.1681 55.4789 43.4577 52.347 47.116C48.7151 44.7868 45.1357 43.8788 41.2538 44.6289C37.385 45.3921 33.5426 47.7739 29.7659 51.5638C26.7787 49.1162 23.6337 48.1029 19.7517 48.8661C8.43486 50.7874 -3.461 71.2499 1.18418 97.1339C6.69787 122.86 25.4628 137.283 36.6744 134.756C40.5564 133.98 43.0829 131.861 44.912 128.466C49.8467 130.532 54.2945 131.282 58.1633 130.532C62.0321 129.756 65.0061 127.558 67.48 124.031C71.7568 126.229 75.7835 127.058 79.6523 126.308C83.521 125.545 86.9293 123.242 90.0612 119.583C93.6931 121.913 97.2724 122.821 101.154 122.071C105.023 121.307 108.866 118.926 112.642 115.136C115.629 117.583 118.774 118.597 122.656 117.833C133.973 115.912 144.145 95.7917 139.487 69.9076C133.973 44.1815 116.932 29.4169 105.734 31.9435Z" fill="#070E14"/>
<path d="M51.4539 50.4176C48.4668 47.1147 57.2834 44.1539 55.9543 32.8107C55.1253 25.6652 52.1776 5.43962 63.9156 0.53125L66.2974 3.42626C66.2974 3.42626 58.8099 5.5449 61.1917 19.5989C65.3763 44.2855 77.3643 38.8902 78.8513 44.4302C80.2988 49.8386 54.441 53.7206 51.4539 50.4176Z" fill="#070E14"/>
<path d="M49.1185 57.0547L35.6172 79.2937L57.1061 71.6614L49.1185 57.0547Z" fill="#FA4A00"/>
<path d="M79.9126 50.9922L100.849 66.4542L78.0703 67.5333L79.9126 50.9922Z" fill="#FA4A00"/>
<path d="M78.4378 87.7035L68.7527 75.5312L64.4102 90.4669L78.4378 87.7035Z" fill="#FA4A00"/>
<path d="M96.2647 93.9099L94.7251 100.634L93.3829 95.2916C90.9879 96.3575 88.0402 97.476 84.4609 98.5682L82.9871 105.135L81.5264 99.4104C79.2104 100.029 76.6839 100.634 73.9073 101.174C71.0517 101.74 68.4331 102.161 66.025 102.463L66.8408 108.306L62.9983 102.805C59.2348 103.174 56.0898 103.253 53.4843 103.187L54.2607 108.595L50.3392 103.016C45.7993 102.634 43.707 101.805 43.707 101.805C46.2336 105.687 51.1551 110.056 58.1558 112.359L59.0506 106.595L60.6955 113.083C64.13 113.899 68.012 114.228 72.3019 113.793L74.7495 104.793L80.0526 112.241C84.1188 110.99 87.5797 109.161 90.4484 107.03L89.5272 100.595L92.4091 105.464C98.2122 100.437 101.226 94.3178 101.91 90.3438C101.897 90.3569 100.212 91.8834 96.2647 93.9099Z" fill="#FA4A00"/>
</svg>
