<svg width="40" height="40" viewBox="0 0 40 40" fill="none" xmlns="http://www.w3.org/2000/svg">
<g clip-path="url(#clip0_1_10886)">
<path d="M10.5764 34.2571L11.2301 34.5803C13.9542 36.1962 17.0049 36.9504 20.0558 36.9504C29.6439 36.9504 37.4888 29.1938 37.4888 19.7135C37.4888 15.1888 35.6364 10.7719 32.3679 7.53988C29.0991 4.30791 24.7407 2.47656 20.0558 2.47656C10.4676 2.47656 2.62257 10.2332 2.73159 19.8213C2.73159 23.0531 3.7122 26.1774 5.34649 28.8705L5.78228 29.517L4.03912 35.8732L10.5764 34.2571Z" fill="#00E676"/>
<path d="M34.2163 5.81745C30.5118 2.04695 25.3908 0 20.1609 0C9.04742 0 0.112932 8.94162 0.221802 19.8224C0.221802 23.2698 1.20241 26.6096 2.83686 29.6259L0.00390625 39.8604L10.5727 37.1671C13.5145 38.7832 16.7831 39.5373 20.052 39.5373C31.0566 39.5373 39.9911 30.5955 39.9911 19.7149C39.9911 14.436 37.9208 9.48031 34.2164 5.81745H34.2163ZM20.1609 36.1977C17.219 36.1977 14.2772 35.4437 11.7712 33.9354L11.1175 33.6122L4.79807 35.2281L6.43236 29.0876L5.99657 28.4411C1.20241 20.7923 3.49054 10.6653 11.3354 5.9251C19.1803 1.18502 29.3132 3.44741 34.1074 11.204C38.9014 18.9606 36.6133 28.9796 28.7686 33.7198C26.2624 35.3358 23.2117 36.1975 20.1609 36.1975V36.1977ZM29.749 24.2397L28.5505 23.701C28.5505 23.701 26.8074 22.9469 25.7177 22.4082C25.6087 22.4082 25.4998 22.3004 25.3908 22.3004C25.0639 22.3004 24.846 22.4082 24.6281 22.516C24.6281 22.516 24.5192 22.6236 22.9938 24.3473C22.8848 24.5628 22.6669 24.6706 22.449 24.6706H22.34C22.2311 24.6706 22.0132 24.5628 21.9042 24.4551L21.3594 24.2397C20.1609 23.701 19.0714 23.0545 18.1996 22.1927C17.9818 21.9773 17.6548 21.7619 17.4369 21.5464C16.6742 20.7923 15.9115 19.9303 15.3669 18.9608L15.2578 18.7453C15.149 18.6375 15.149 18.5299 15.0399 18.3144C15.0399 18.099 15.0399 17.8836 15.149 17.7758C15.149 17.7758 15.5848 17.2371 15.9115 16.914C16.1296 16.6984 16.2384 16.3753 16.4563 16.1598C16.6742 15.8366 16.7833 15.4057 16.6742 15.0825C16.5654 14.5438 15.2578 11.6351 14.9311 10.9887C14.713 10.6655 14.4953 10.5578 14.1684 10.45H12.9699C12.7518 10.45 12.5341 10.5578 12.316 10.5578L12.207 10.6655C11.9891 10.7733 11.7712 10.9887 11.5533 11.0964C11.3354 11.312 11.2264 11.5273 11.0085 11.7429C10.2458 12.7124 9.80998 13.8975 9.80998 15.0825C9.80998 15.9442 10.0279 16.8062 10.3548 17.5603L10.4638 17.8836C11.4444 19.9303 12.7518 21.7619 14.4953 23.3778L14.9311 23.8086C15.2578 24.1319 15.5848 24.3473 15.8026 24.6704C18.0908 26.6097 20.7057 28.0102 23.6475 28.7643C23.9744 28.872 24.4102 28.872 24.7371 28.9798H25.8266C26.3714 28.9798 27.0251 28.7643 27.4611 28.5489C27.7878 28.3334 28.0057 28.3334 28.2236 28.118L28.4417 27.9024C28.6596 27.687 28.8775 27.5793 29.0954 27.3639C29.3132 27.1484 29.5311 26.933 29.6402 26.7174C29.8581 26.2865 29.9669 25.7478 30.076 25.2093V24.4551C30.076 24.4551 29.9669 24.3473 29.749 24.2397Z" fill="white"/>
</g>
<defs>
<clipPath id="clip0_1_10886">
<rect width="40" height="40" fill="white"/>
</clipPath>
</defs>
</svg>
