<svg   viewBox="0 0 129 30" fill="none" xmlns="http://www.w3.org/2000/svg">
<path fill-rule="evenodd" clip-rule="evenodd" d="M14.2629 17.5866C14.08 18.1432 13.7852 18.5498 13.3786 18.807C13.0134 19.0482 12.4897 19.2105 11.8091 19.2932C11.0948 19.3935 9.97388 19.4425 8.44568 19.4425C7.31637 19.4425 6.38996 19.3966 5.66797 19.3055C4.98732 19.2144 4.47588 19.0773 4.13594 18.8943C3.89477 18.7534 3.6957 18.5873 3.53798 18.3967C3.37184 18.1968 3.23862 17.9564 3.13909 17.6739C2.92318 17.0844 2.81523 16.1626 2.81523 14.9084C2.81523 13.8542 2.91476 13.0441 3.11382 12.4799C3.30523 11.9393 3.59617 11.5328 3.98588 11.2587C4.335 11.0259 4.87095 10.8644 5.59294 10.7725C6.4068 10.673 7.60272 10.6232 9.18068 10.6232C10.1852 10.6232 11.0572 10.673 11.7968 10.7725C12.4691 10.872 12.9552 11.0091 13.2538 11.1837C13.4943 11.3245 13.6941 11.4868 13.8518 11.6698C14.0264 11.8773 14.1588 12.1139 14.2507 12.3796C14.4666 12.9691 14.5746 13.8741 14.5746 15.0953C14.5746 16.1748 14.4704 17.0055 14.2629 17.5866ZM17.0659 11.2832C16.8829 10.7855 16.6219 10.3415 16.2811 9.95022C15.9404 9.55209 15.5339 9.21521 15.06 8.94188C14.4375 8.57668 13.6566 8.32708 12.7187 8.19386C11.78 8.06983 10.4432 8.00781 8.70752 8.00781C7.69383 8.00781 6.81795 8.03614 6.07911 8.09433C5.31501 8.16094 4.7339 8.25588 4.335 8.38144C3.87792 8.52232 3.47137 8.72597 3.11382 8.99165C3.03113 9.05826 2.94768 9.13252 2.86499 9.21521V8.59275C2.86499 8.47638 2.82365 8.37685 2.74019 8.29416C2.65751 8.2107 2.5618 8.16936 2.45385 8.16936H0.423394C0.307018 8.16936 0.203658 8.2107 0.111782 8.29416C0.0375159 8.36919 0 8.46796 0 8.59275V26.1318C0 26.2559 0.0375159 26.3562 0.111782 26.4312C0.203658 26.5139 0.307018 26.5552 0.423394 26.5552H2.45385C2.5618 26.5552 2.65751 26.5139 2.74019 26.4312C2.82365 26.3477 2.86499 26.2474 2.86499 26.1318V20.9125C3.29681 21.2777 3.80366 21.5434 4.38477 21.7095C4.79209 21.8343 5.35253 21.9255 6.06686 21.9836C6.74751 22.0418 7.55295 22.0709 8.48319 22.0709C9.77022 22.0709 10.8666 22.0334 11.7716 21.9584C12.7102 21.8841 13.4368 21.7677 13.9513 21.61C14.5079 21.4439 15.0102 21.1905 15.4589 20.8497C15.9152 20.5014 16.3018 20.078 16.6173 19.5796C16.9411 19.0896 17.1815 18.4503 17.34 17.6617C17.4977 16.9221 17.5766 16.05 17.5766 15.0455C17.5766 13.4423 17.4059 12.1889 17.0659 11.2832Z" fill="#0D7FC3"/>
<path fill-rule="evenodd" clip-rule="evenodd" d="M33.3086 18.602C33.1838 18.8011 32.984 18.9549 32.7107 19.0629C32.4113 19.1961 31.9175 19.2957 31.2277 19.3615C30.5639 19.4197 29.6757 19.4488 28.5625 19.4488C26.5941 19.4488 25.1945 19.3998 24.3645 19.2995C24.0736 19.275 23.8539 19.2367 23.7046 19.1869L23.53 19.1379C23.2888 19.0216 23.1104 18.8592 22.9941 18.6518C22.8785 18.4274 22.8203 18.1411 22.8203 17.792C22.8203 17.4267 22.87 17.1236 22.9688 16.8824C23.0775 16.6672 23.2222 16.5049 23.406 16.397C23.5384 16.3304 23.6877 16.2806 23.8539 16.2477C24.0698 16.1979 24.34 16.1558 24.6639 16.1229C25.3032 16.0647 26.4654 16.0364 28.1514 16.0364C29.3473 16.0364 30.2898 16.0731 30.9788 16.1481C31.71 16.214 32.2536 16.3143 32.6112 16.4467C32.9098 16.5631 33.1341 16.7254 33.2834 16.9329C33.425 17.132 33.4955 17.4022 33.4955 17.7422C33.4955 18.0829 33.4327 18.3692 33.3086 18.602ZM36.46 12.6974C36.4347 12.199 36.3811 11.7542 36.2977 11.3652C36.1484 10.6746 35.8207 10.069 35.3138 9.54611C34.7159 8.9313 33.8859 8.51174 32.8225 8.28741C32.324 8.18864 31.6725 8.11361 30.867 8.06384C30.0111 8.00489 29.0609 7.97656 28.0143 7.97656C26.5856 7.97656 25.3905 8.03858 24.4266 8.16338C23.4473 8.29583 22.6748 8.49489 22.1098 8.76057C21.5202 9.05151 21.08 9.46265 20.7898 9.99477C20.4989 10.5177 20.3534 11.1524 20.3534 11.8997L20.3787 12.5106C20.3955 12.6102 20.4407 12.6974 20.5157 12.7717C20.5984 12.8467 20.6941 12.8843 20.8021 12.8843H22.9198C23.0438 12.8843 23.1441 12.8467 23.2184 12.7717C23.3019 12.689 23.3432 12.5849 23.3432 12.4609V12.2863C23.3432 11.9127 23.406 11.6179 23.53 11.402C23.638 11.2106 23.8125 11.0659 24.0529 10.9656C24.1693 10.9158 24.3515 10.8668 24.6011 10.8163L25.4854 10.6915C26.1829 10.6341 27.0756 10.605 28.1636 10.605C29.0027 10.605 29.7171 10.6256 30.3066 10.667C30.8793 10.7083 31.3486 10.7627 31.7138 10.8285C32.0706 10.912 32.3539 11.0154 32.5614 11.1402C32.8018 11.2734 32.9886 11.4273 33.1218 11.6011C33.288 11.8001 33.4128 12.0742 33.4955 12.4233C33.5866 12.8054 33.6325 13.2663 33.6325 13.8061V14.329C33.5246 14.2379 33.4128 14.1552 33.2964 14.0802C32.9304 13.8643 32.5239 13.7104 32.0752 13.6193C31.6602 13.5527 31.0041 13.4945 30.1068 13.4447C29.2271 13.4034 28.1269 13.3827 26.8061 13.3827C25.8016 13.3827 24.9709 13.4034 24.3148 13.4447C23.6426 13.486 23.0645 13.5527 22.5837 13.6438C22.2928 13.6935 22.0309 13.7686 21.7989 13.8681V13.8811C21.4329 14.0304 21.1259 14.2134 20.8771 14.4285C20.6191 14.6613 20.4078 14.9392 20.2416 15.2631C19.943 15.8695 19.793 16.7002 19.793 17.7544C19.793 18.6104 19.8925 19.2957 20.0923 19.8102C20.2914 20.3331 20.652 20.7779 21.1757 21.1431C21.4245 21.3422 21.7446 21.5083 22.135 21.6415C22.4918 21.7663 22.903 21.8575 23.3685 21.9156H23.3799C23.8041 21.9646 24.4266 22.0068 25.2489 22.0397C26.2955 22.0649 27.2548 22.0772 28.1269 22.0772C29.0732 22.0772 29.9161 22.0519 30.655 22.0029C31.3946 21.9363 31.9343 21.8575 32.275 21.7663C32.7895 21.6163 33.2497 21.3629 33.657 21.0061L33.6325 21.4792C33.6325 21.5872 33.6739 21.6913 33.7565 21.7908C33.8484 21.8735 33.9518 21.9156 34.0681 21.9156H36.0986C36.2066 21.9156 36.3015 21.8735 36.3857 21.7908C36.4768 21.7074 36.522 21.6079 36.522 21.4915V14.6904C36.522 13.9179 36.5013 13.2541 36.46 12.6974Z" fill="#0D7FC3"/>
<path fill-rule="evenodd" clip-rule="evenodd" d="M40.8087 8.38319L46.8135 19.1832L52.3559 8.3962C52.4394 8.24691 52.5642 8.17188 52.7303 8.17188H55.1214C55.2791 8.17188 55.4001 8.23772 55.4827 8.3717C55.5654 8.52024 55.57 8.65729 55.4958 8.78208L49.2176 20.778V20.7902C48.4451 22.2442 47.8471 23.2739 47.4237 23.8803C46.9666 24.5189 46.4559 25.038 45.8917 25.4369C45.3603 25.8021 44.7784 26.0555 44.1476 26.1964C43.558 26.3212 42.7105 26.3878 41.6064 26.3962C41.1494 26.3962 40.7551 26.3878 40.4228 26.3709C40.3148 26.3625 40.2237 26.3212 40.1487 26.2469C40.066 26.1634 40.0239 26.0639 40.0239 25.9475V24.0786C40.0239 23.9546 40.0698 23.8505 40.1609 23.7678C40.2528 23.6927 40.3646 23.6598 40.4978 23.6682C40.8385 23.7012 41.1371 23.7172 41.3944 23.7172C42.0421 23.7172 42.5903 23.6767 43.0389 23.5932C43.4784 23.5182 43.8153 23.4148 44.048 23.2816V23.2694C44.2639 23.153 44.5089 22.9286 44.7823 22.5964C44.94 22.3973 45.1069 22.1607 45.2807 21.8866C45.1482 21.8698 45.0357 21.7993 44.9446 21.6745L37.6948 8.80735C37.6121 8.66647 37.6121 8.52024 37.6948 8.3717C37.7775 8.23772 37.8985 8.17188 38.0562 8.17188H40.448C40.605 8.17188 40.726 8.24231 40.8087 8.38319Z" fill="#0D7FC3"/>
<path d="M48.4992 30.0001H48.9647C54.5706 30.0001 59.329 29.4856 63.2399 28.4558C63.5224 28.3723 63.8011 28.2942 64.0744 28.2192C69.4223 26.6489 72.383 24.1369 72.9565 20.6823C73.1471 19.5615 72.7153 18.3617 71.661 17.0831C71.1611 16.4767 70.4445 15.7808 69.5196 15.0006H69.5203C69.0732 14.6515 68.5801 14.2817 68.0396 13.8897C66.013 12.4196 64.7305 11.4358 64.1908 10.9374C63.0615 9.89153 62.5585 8.99038 62.6833 8.2347C63.1564 5.38656 66.4823 3.23513 72.661 1.78196C73.3255 1.62424 74.023 1.47495 74.7534 1.3333C74.8629 1.31263 74.9716 1.29579 75.0811 1.27512C75.6408 1.17099 76.1989 1.07222 76.7563 0.98188C77.1912 0.912207 77.6245 0.850191 78.0579 0.789706C78.2654 0.759081 78.4721 0.729221 78.6788 0.701658C79.2255 0.629689 79.7706 0.56461 80.315 0.505657C80.3816 0.498001 80.449 0.49111 80.5156 0.484219C81.1166 0.420672 81.7168 0.364781 82.3156 0.317312V0.312718C82.3171 0.311952 82.314 0.317312 82.3156 0.317312C82.4013 0.317312 82.4756 0.24228 82.4756 0.156529C82.4756 0.0700128 82.4059 0.000340281 82.3202 0.000340281C82.3171 0.000340281 82.3217 -0.000425351 82.3202 0.000340281C82.1709 -0.000425351 82.0216 0.000340281 81.8661 0.000340281H81.8577C81.8531 0.000340281 81.8501 0.00110591 81.8455 0.00110591C81.7582 0.00110591 81.6763 0.00340281 81.5897 0.00416845C80.9803 0.00569971 80.377 0.0110591 79.7874 0.0248405C79.4483 0.0332625 79.1213 0.0493407 78.7883 0.0615908C78.4621 0.0730753 78.1291 0.0814973 77.8091 0.0975755C73.9227 0.290515 70.5126 0.772862 67.5795 1.54538C67.2969 1.62884 67.019 1.70693 66.7442 1.78196C61.397 3.35151 58.4363 5.86354 57.8628 9.31807C57.6714 10.4397 58.104 11.6395 59.1583 12.9181C59.6582 13.5245 60.3749 14.2196 61.2998 15.0006H61.299C61.7461 15.3497 62.2392 15.7195 62.7797 16.1115C64.8056 17.5808 66.0888 18.5654 66.6285 19.063C67.7579 20.1096 68.2609 21.0108 68.1361 21.7665C67.6629 24.6146 64.337 26.7653 58.1584 28.2192C57.4938 28.3769 56.7963 28.5262 56.0659 28.6679C55.9564 28.6885 55.8469 28.7054 55.7382 28.7253C55.1785 28.8294 54.6204 28.929 54.0638 29.0193C53.6281 29.089 53.1948 29.1502 52.7614 29.2115C52.5547 29.2413 52.3472 29.272 52.1405 29.2995C51.5939 29.3715 51.0487 29.4366 50.5044 29.4955C50.4378 29.5024 50.3704 29.5101 50.303 29.517C49.7027 29.5797 48.5038 29.6839 48.4992 29.6839C48.4134 29.6839 48.3438 29.7589 48.3438 29.8446C48.3438 29.9304 48.4134 30.0001 48.4992 30.0001Z" fill="#F37520"/>
<path d="M78.3776 13.3274C78.435 12.9201 78.5307 12.5587 78.6632 12.2433C78.8132 11.8697 79.0207 11.5795 79.2864 11.3712L79.2994 11.359C79.6394 11.0933 80.1171 10.9103 80.7311 10.8108C81.4126 10.686 82.3972 10.624 83.6834 10.624C85.1787 10.624 86.3034 10.686 87.0591 10.8108C87.7895 10.9356 88.3377 11.1431 88.7037 11.434C88.9693 11.6415 89.173 11.924 89.3139 12.2808C89.4302 12.5878 89.5053 12.9369 89.5382 13.3274H78.3776ZM92.5157 15.7935C92.6068 15.7108 92.652 15.6113 92.652 15.4942C92.6275 13.9415 92.5241 12.7746 92.3412 11.9945C92.1498 11.2051 91.7807 10.4953 91.2325 9.86447C90.5756 9.11721 89.7128 8.61879 88.6416 8.36996C88.1432 8.24516 87.4786 8.15328 86.6487 8.09509C85.8264 8.03691 84.8587 8.00781 83.7462 8.00781C82.5419 8.00781 81.5328 8.04992 80.7189 8.13261C79.8721 8.20764 79.1784 8.33167 78.6387 8.50624C78.0744 8.68922 77.5928 8.95107 77.1939 9.29101C76.779 9.62329 76.4252 10.0429 76.1351 10.5497C75.8357 11.0642 75.6114 11.7081 75.4621 12.4806C75.3204 13.211 75.25 14.0747 75.25 15.0708C75.25 16.4749 75.4169 17.6624 75.7484 18.634C76.1144 19.6301 76.658 20.3858 77.3807 20.901C78.0116 21.3413 78.9166 21.6483 80.0964 21.8229C81.2755 21.9882 82.9362 22.0717 85.0784 22.0717C86.3991 22.0717 87.5284 21.9974 88.4671 21.8474C89.4471 21.6728 90.2188 21.424 90.7839 21.1001C91.3818 20.7433 91.8297 20.2617 92.1291 19.6554C92.4369 19.0658 92.5984 18.3515 92.6153 17.5124C92.6153 17.3883 92.5731 17.288 92.4905 17.2138C92.407 17.1303 92.3121 17.089 92.2041 17.089H90.0611C89.9455 17.089 89.8498 17.1219 89.7748 17.1885C89.6997 17.2719 89.6546 17.3631 89.6377 17.4626C89.604 17.7704 89.555 18.0192 89.4884 18.2106C89.4302 18.4013 89.3598 18.5421 89.2763 18.634C89.2763 18.6424 89.2725 18.6463 89.2641 18.6463C89.1232 18.7871 88.9571 18.9035 88.7657 18.9946C88.5421 19.111 88.2803 19.1983 87.9809 19.2565C87.3332 19.3813 86.2912 19.4433 84.8548 19.4433C83.9659 19.4433 83.1398 19.431 82.3757 19.4058C81.7196 19.3644 81.1721 19.3062 80.7311 19.2312H80.7442C80.3782 19.173 80.0421 19.0781 79.7351 18.9456C79.4441 18.804 79.232 18.6585 79.0996 18.5092C78.85 18.2604 78.6594 17.8944 78.5269 17.4128C78.4105 17.0063 78.3317 16.5078 78.2903 15.9183H92.2164C92.3412 15.9183 92.4407 15.8762 92.5157 15.7935Z" fill="#F37520"/>
<path d="M108.424 9.0797C107.951 8.67238 107.357 8.38603 106.644 8.21989C105.979 8.07902 105.003 8.00781 103.716 8.00781C103.268 8.00781 102.861 8.01241 102.495 8.02083C101.805 8.03691 101.241 8.07059 100.801 8.12036C100.112 8.19463 99.5469 8.34852 99.1066 8.58127C98.733 8.77191 98.4099 9.00084 98.1351 9.26574V8.59352C98.1351 8.47714 98.0937 8.37761 98.011 8.29492C97.9191 8.21147 97.8158 8.17013 97.6994 8.17013H95.669C95.561 8.17013 95.4661 8.21147 95.3826 8.29492C95.2999 8.37761 95.2578 8.47714 95.2578 8.59352V21.486C95.2578 21.6024 95.2999 21.7019 95.3826 21.7853C95.4661 21.868 95.561 21.9094 95.669 21.9094H97.6994C97.8158 21.9094 97.9191 21.868 98.011 21.7853C98.0937 21.7019 98.1351 21.6024 98.1351 21.486V15.5324C98.1351 14.7178 98.181 14.0042 98.2729 13.3894C98.364 12.7999 98.4964 12.3306 98.671 11.9822C98.7789 11.7655 98.8992 11.6002 99.0324 11.4838C99.174 11.359 99.3647 11.2426 99.6051 11.1346C99.8715 11.0267 100.183 10.9356 100.539 10.8606C101.097 10.7449 101.748 10.6699 102.495 10.637C102.802 10.6286 103.13 10.624 103.479 10.624C104.243 10.624 104.896 10.6822 105.435 10.7985C105.9 10.8981 106.232 11.0435 106.431 11.2349C106.614 11.4087 106.743 11.6415 106.818 11.9317V11.9447C106.909 12.3099 106.954 12.816 106.954 13.4645V14.3863C106.954 14.4942 106.996 14.5938 107.079 14.6849C107.162 14.7683 107.262 14.8097 107.379 14.8097H109.458C109.575 14.8097 109.675 14.7683 109.757 14.6849C109.849 14.5938 109.894 14.4942 109.894 14.3863V13.0526C109.878 12.1315 109.757 11.359 109.533 10.7365C109.293 10.0635 108.923 9.51151 108.424 9.0797Z" fill="#F37520"/>
<path d="M124.99 18.602C124.873 18.8011 124.678 18.9549 124.405 19.0629C124.097 19.1961 123.607 19.2957 122.935 19.3615C122.262 19.4197 121.374 19.4488 120.269 19.4488C118.293 19.4488 116.889 19.399 116.059 19.2995C115.784 19.275 115.565 19.2367 115.398 19.1869L115.211 19.1379C114.971 19.0131 114.796 18.8508 114.688 18.6518C114.564 18.4106 114.501 18.1242 114.501 17.792C114.501 17.4436 114.556 17.1404 114.663 16.8824C114.771 16.6672 114.921 16.5049 115.112 16.397C115.211 16.3388 115.361 16.289 115.56 16.2477C115.768 16.1895 116.034 16.1481 116.358 16.1229C117.013 16.0647 118.176 16.0364 119.845 16.0364C121.05 16.0364 121.992 16.0731 122.673 16.1481C123.412 16.2148 123.957 16.3143 124.305 16.4467C124.612 16.5631 124.84 16.7254 124.99 16.9329C125.131 17.132 125.202 17.4022 125.202 17.7422C125.202 18.0913 125.131 18.3777 124.99 18.602ZM128.154 12.6974C128.13 12.199 128.079 11.7542 128.005 11.3652C127.847 10.667 127.511 10.0606 126.996 9.54611H127.009C126.401 8.9313 125.575 8.51174 124.529 8.28741C124.023 8.18022 123.367 8.10519 122.561 8.06384C121.714 8.00566 120.763 7.97656 119.708 7.97656C118.28 7.97656 117.088 8.03858 116.133 8.16338C115.154 8.29583 114.381 8.49489 113.816 8.76057C113.226 9.05151 112.782 9.46265 112.484 9.99477C112.193 10.5177 112.047 11.1524 112.047 11.8997L112.085 12.5106C112.093 12.6186 112.139 12.7059 112.222 12.7717C112.297 12.8467 112.388 12.8843 112.496 12.8843H114.626C114.742 12.8843 114.843 12.8467 114.925 12.7717C115 12.689 115.037 12.5849 115.037 12.4609V12.2863C115.037 11.9127 115.099 11.6179 115.224 11.402C115.34 11.2022 115.515 11.0575 115.747 10.9656C115.847 10.9242 116.029 10.8745 116.296 10.8163L117.179 10.6915C117.877 10.6341 118.774 10.605 119.871 10.605C120.701 10.605 121.415 10.6256 122.013 10.667C122.586 10.7083 123.046 10.7627 123.396 10.8285H123.408C123.756 10.912 124.04 11.0154 124.255 11.1402C124.496 11.2734 124.683 11.4273 124.816 11.6011C124.974 11.7917 125.102 12.0658 125.202 12.4233C125.294 12.8054 125.339 13.2663 125.339 13.8061V14.329C125.222 14.2379 125.107 14.1552 124.99 14.0802C124.624 13.8643 124.218 13.7104 123.769 13.6193C123.337 13.5527 122.681 13.4945 121.801 13.4447C120.929 13.4034 119.825 13.3827 118.488 13.3827C117.491 13.3827 116.665 13.4034 116.009 13.4447C115.336 13.486 114.759 13.5527 114.277 13.6438C113.994 13.6935 113.738 13.7686 113.504 13.8681V13.8811C113.14 14.022 112.832 14.2042 112.583 14.4285C112.325 14.6613 112.11 14.9392 111.936 15.2631C111.645 15.8695 111.5 16.7002 111.5 17.7544C111.5 18.6104 111.595 19.2957 111.786 19.8102C111.985 20.3338 112.351 20.7817 112.883 21.1554C113.131 21.3468 113.446 21.5083 113.829 21.6415C114.178 21.7663 114.589 21.8575 115.062 21.9149C115.502 21.9646 116.129 22.0068 116.943 22.0397C117.998 22.0649 118.961 22.0772 119.833 22.0772C120.78 22.0772 121.619 22.0519 122.349 22.0029C123.096 21.9363 123.636 21.8575 123.968 21.7663C124.475 21.6163 124.936 21.3629 125.351 21.0061L125.339 21.4792C125.339 21.6033 125.376 21.7074 125.451 21.7908C125.551 21.8735 125.65 21.9149 125.749 21.9149H127.793C127.909 21.9149 128.009 21.8735 128.091 21.7908C128.175 21.7074 128.216 21.6079 128.216 21.4915V14.6904C128.216 13.9179 128.195 13.2541 128.154 12.6974Z" fill="#F37520"/>
</svg>
