<svg  viewBox="0 0 82 29" fill="none" xmlns="http://www.w3.org/2000/svg">
<g clip-path="url(#clip0_1_10851)">
<path d="M0.0390625 26.4016L0.864829 26.3217C0.918977 26.6013 1.01374 26.8009 1.17618 26.934C1.32509 27.0671 1.54168 27.1203 1.79889 27.1203C2.06963 27.1203 2.28623 27.0671 2.4216 26.9473C2.55697 26.8275 2.63819 26.6944 2.63819 26.548C2.63819 26.4548 2.61112 26.3617 2.54343 26.2951C2.48928 26.2286 2.38099 26.162 2.23208 26.1088C2.13732 26.0688 1.90719 26.0156 1.54169 25.9224C1.08142 25.816 0.756531 25.6695 0.580548 25.5098C0.323342 25.2836 0.187972 25.004 0.187972 24.6713C0.187972 24.4583 0.255657 24.2587 0.377491 24.0723C0.499325 23.886 0.675308 23.7529 0.90544 23.6464C1.13557 23.5532 1.40631 23.5 1.7312 23.5C2.25915 23.5 2.66527 23.6198 2.93601 23.8461C3.20675 24.0723 3.34212 24.3785 3.35566 24.7645L2.50282 24.7911C2.46221 24.5781 2.38099 24.4184 2.27269 24.3252C2.15086 24.2321 1.97487 24.1788 1.7312 24.1788C1.48754 24.1788 1.28448 24.2321 1.14911 24.3252C1.05435 24.3918 1.01374 24.4716 1.01374 24.5781C1.01374 24.6713 1.05435 24.7645 1.13557 24.831C1.24387 24.9242 1.50107 25.0174 1.92072 25.1105C2.34038 25.2037 2.63819 25.3102 2.84125 25.4167C3.04431 25.5231 3.19322 25.6562 3.31505 25.8426C3.42335 26.0289 3.4775 26.2419 3.4775 26.5081C3.4775 26.7477 3.40981 26.9739 3.27444 27.1869C3.13907 27.3999 2.94955 27.5463 2.70588 27.6528C2.46221 27.7592 2.15086 27.7992 1.78535 27.7992C1.24387 27.7992 0.837754 27.6794 0.553474 27.4265C0.269194 27.2268 0.0932111 26.8675 0.0390625 26.4016Z" fill="#00489A"/>
<path d="M4.38672 23.5938H5.19895V24.3258H4.38672V23.5938ZM4.38672 24.7384H5.19895V27.7598H4.38672V24.7384Z" fill="#00489A"/>
<path d="M9.00349 27.7653H8.19127V26.2213C8.19127 25.8886 8.17773 25.6889 8.13712 25.5825C8.09651 25.4893 8.04236 25.4094 7.97467 25.3562C7.89345 25.3029 7.79869 25.2763 7.69039 25.2763C7.55502 25.2763 7.41965 25.3163 7.31135 25.3961C7.20305 25.476 7.12183 25.5691 7.08122 25.7022C7.04061 25.822 7.02707 26.0616 7.02707 26.3944V27.7653H6.21484V24.7439H6.97292V25.1832C7.24367 24.8371 7.58209 24.6641 7.98821 24.6641C8.16419 24.6641 8.32664 24.6907 8.47555 24.7572C8.62445 24.8238 8.73275 24.9036 8.81397 24.9968C8.8952 25.09 8.94934 25.2098 8.97642 25.3296C9.00349 25.4494 9.01703 25.6357 9.01703 25.862V27.7653" fill="#00489A"/>
<path d="M9.9208 27.9595L10.8413 28.0526C10.8549 28.1724 10.8955 28.239 10.9496 28.2922C11.0308 28.3588 11.1527 28.3854 11.3151 28.3854C11.5317 28.3854 11.6942 28.3588 11.7889 28.2922C11.8566 28.2523 11.9108 28.1857 11.9514 28.0926C11.9784 28.026 11.992 27.9062 11.992 27.7199V27.2807C11.7483 27.6001 11.4505 27.7598 11.0715 27.7598C10.6518 27.7598 10.3269 27.5868 10.0968 27.2407C9.90726 26.9745 9.8125 26.6285 9.8125 26.2292C9.8125 25.7234 9.93433 25.3374 10.178 25.0712C10.4217 24.805 10.733 24.6719 11.0985 24.6719C11.4776 24.6719 11.7889 24.8316 12.0326 25.1644V24.7517H12.7907V27.467C12.7907 27.8264 12.7636 28.0926 12.6959 28.2656C12.6418 28.4386 12.547 28.5851 12.4387 28.6782C12.3304 28.7714 12.1815 28.8513 12.0055 28.9178C11.8295 28.971 11.5994 28.9977 11.3151 28.9977C10.7872 28.9977 10.4217 28.9045 10.2051 28.7315C9.98848 28.5584 9.88019 28.3322 9.88019 28.0526C9.9208 28.026 9.9208 27.9994 9.9208 27.9595ZM10.6518 26.1892C10.6518 26.5087 10.7195 26.7483 10.8413 26.8947C10.9632 27.0411 11.1256 27.1209 11.3016 27.1209C11.4911 27.1209 11.6671 27.0411 11.8025 26.8947C11.9378 26.7483 12.0055 26.522 12.0055 26.2159C12.0055 25.8964 11.9378 25.6701 11.816 25.5237C11.6942 25.3773 11.5182 25.2975 11.3287 25.2975C11.1391 25.2975 10.9767 25.364 10.8549 25.5237C10.7195 25.6568 10.6518 25.8831 10.6518 26.1892Z" fill="#00489A"/>
<path d="M14.6052 23.5938H13.793V27.7598H14.6052V23.5938Z" fill="#00489A"/>
<path d="M17.4095 26.8203L18.2217 26.9534C18.1134 27.2462 17.951 27.4592 17.7208 27.6189C17.4907 27.7786 17.22 27.8452 16.8815 27.8452C16.34 27.8452 15.9475 27.6721 15.6903 27.3261C15.4872 27.0466 15.3789 26.7005 15.3789 26.2746C15.3789 25.7688 15.5143 25.3828 15.785 25.09C16.0558 24.8105 16.3942 24.6641 16.8003 24.6641C17.2606 24.6641 17.6261 24.8105 17.8833 25.1033C18.154 25.4094 18.2759 25.862 18.2623 26.4742H16.2182C16.2182 26.7138 16.2859 26.9002 16.4213 27.0333C16.5431 27.1664 16.7055 27.2329 16.8951 27.2329C17.0304 27.2329 17.1252 27.2063 17.22 27.1264C17.3012 27.0732 17.3689 26.9667 17.4095 26.8203ZM17.4501 26.0084C17.4501 25.7688 17.3824 25.5958 17.2606 25.476C17.1387 25.3562 17.0034 25.2896 16.8409 25.2896C16.6649 25.2896 16.516 25.3562 16.3942 25.476C16.2724 25.6091 16.2182 25.7821 16.2182 26.0084H17.4501Z" fill="#00489A"/>
<path d="M20.9297 27.7598V23.5938H24.0703V24.2992H21.7961V25.2176H23.9079V25.923H21.7961V27.0677H24.1515V27.7598H20.9297Z" fill="#00489A"/>
<path d="M27.0754 27.7659V27.3134C26.9671 27.4731 26.8181 27.6062 26.6286 27.6993C26.4391 27.7925 26.2496 27.8458 26.0465 27.8458C25.8435 27.8458 25.654 27.8058 25.4915 27.7127C25.3291 27.6195 25.2072 27.4997 25.1395 27.34C25.0719 27.1802 25.0312 26.954 25.0312 26.6745V24.7578H25.8435V26.1421C25.8435 26.568 25.857 26.8209 25.8841 26.9274C25.9112 27.0205 25.9653 27.1004 26.0465 27.1536C26.1278 27.2069 26.2225 27.2335 26.3443 27.2335C26.4797 27.2335 26.6016 27.1936 26.7234 27.127C26.8317 27.0472 26.9129 26.954 26.9535 26.8475C26.9941 26.741 27.0077 26.4615 27.0077 26.0356V24.7578H27.8199V27.7659H27.0754Z" fill="#00489A"/>
<path d="M29.6208 27.7598H28.8086V24.7384H29.5667V25.1644C29.702 24.9647 29.8103 24.8316 29.9186 24.765C30.0269 24.6985 30.1352 24.6719 30.2706 24.6719C30.4601 24.6719 30.6361 24.7251 30.8121 24.8183L30.5684 25.5104C30.4331 25.4172 30.2977 25.3773 30.1894 25.3773C30.0811 25.3773 29.9728 25.4039 29.9051 25.4705C29.8239 25.537 29.7562 25.6435 29.7156 25.8032C29.675 25.963 29.6479 26.309 29.6479 26.8148V27.7598" fill="#00489A"/>
<path d="M31.1211 26.2158C31.1211 25.9496 31.1888 25.6968 31.3242 25.4439C31.4595 25.191 31.649 25.0046 31.8927 24.8715C32.1364 24.7384 32.4071 24.6719 32.7049 24.6719C33.1652 24.6719 33.5578 24.8183 33.8421 25.1111C34.1399 25.4172 34.2888 25.7899 34.2888 26.2425C34.2888 26.7083 34.1399 27.081 33.8421 27.3871C33.5442 27.6933 33.1652 27.8397 32.7049 27.8397C32.4207 27.8397 32.1499 27.7731 31.8927 27.6533C31.6355 27.5335 31.446 27.3472 31.3106 27.1076C31.1888 26.8547 31.1211 26.5619 31.1211 26.2158ZM31.9604 26.2558C31.9604 26.5619 32.0281 26.7882 32.177 26.9479C32.3259 27.1076 32.5019 27.1875 32.7185 27.1875C32.9351 27.1875 33.1111 27.1076 33.2464 26.9479C33.3953 26.7882 33.463 26.5619 33.463 26.2558C33.463 25.963 33.3953 25.7367 33.2464 25.577C33.0975 25.4172 32.9215 25.3374 32.7185 25.3374C32.5019 25.3374 32.3259 25.4172 32.177 25.577C32.0281 25.7234 31.9604 25.9496 31.9604 26.2558Z" fill="#00489A"/>
<path d="M36.957 27.7598V23.5938H38.3243C38.8522 23.5938 39.1771 23.6204 39.3396 23.6603C39.5832 23.7269 39.7863 23.8599 39.9487 24.0729C40.1112 24.2859 40.1924 24.5521 40.1924 24.8848C40.1924 25.1377 40.1518 25.3507 40.057 25.537C39.9623 25.7101 39.8404 25.8432 39.7051 25.9496C39.5562 26.0428 39.4073 26.1094 39.2583 26.1493C39.0553 26.1892 38.7575 26.2158 38.3649 26.2158H37.8099V27.7598H36.957ZM37.8099 24.2992V25.4838H38.2837C38.6221 25.4838 38.8387 25.4572 38.9605 25.4172C39.0688 25.364 39.1636 25.2974 39.2313 25.2043C39.299 25.1111 39.326 25.0046 39.326 24.8848C39.326 24.7251 39.2854 24.6053 39.1907 24.5121C39.0959 24.419 38.9876 24.3524 38.8522 24.3258C38.7439 24.2992 38.5409 24.2992 38.2295 24.2992H37.8099Z" fill="#00489A"/>
<path d="M41.6677 25.6623L40.9367 25.5292C41.0179 25.2364 41.1668 25.0234 41.3563 24.877C41.5594 24.7306 41.8572 24.6641 42.2633 24.6641C42.6288 24.6641 42.8996 24.704 43.0756 24.7839C43.2515 24.8637 43.3734 24.9702 43.4546 25.1033C43.5223 25.2364 43.5629 25.476 43.5629 25.822L43.5494 26.7537C43.5494 27.0199 43.5629 27.2196 43.59 27.3394C43.617 27.4592 43.6577 27.6056 43.7389 27.7387H42.9266C42.8996 27.6855 42.886 27.6056 42.8454 27.5124C42.8319 27.4592 42.8184 27.4326 42.8184 27.4192C42.683 27.5524 42.5341 27.6588 42.3716 27.7254C42.2092 27.7919 42.0467 27.8319 41.8708 27.8319C41.5594 27.8319 41.3022 27.752 41.1262 27.579C40.9502 27.4059 40.8555 27.193 40.8555 26.9401C40.8555 26.7671 40.8961 26.6206 40.9773 26.4875C41.0585 26.3544 41.1804 26.248 41.3293 26.1814C41.4782 26.1149 41.6948 26.0483 41.9791 25.9951C42.3581 25.9285 42.6153 25.862 42.7642 25.7954V25.7156C42.7642 25.5558 42.7236 25.4494 42.6424 25.3828C42.5611 25.3163 42.4122 25.2896 42.1956 25.2896C42.0467 25.2896 41.9384 25.3163 41.8572 25.3695C41.7895 25.4227 41.7218 25.5292 41.6677 25.6623ZM42.7642 26.3145C42.6559 26.3544 42.4935 26.3944 42.2633 26.4343C42.0332 26.4742 41.8978 26.5275 41.8166 26.5807C41.7083 26.6606 41.6542 26.7537 41.6542 26.8602C41.6542 26.9667 41.6948 27.0732 41.776 27.153C41.8572 27.2329 41.9655 27.2728 42.1009 27.2728C42.2498 27.2728 42.3852 27.2196 42.5205 27.1264C42.6153 27.0599 42.683 26.9667 42.7101 26.8602C42.7371 26.7937 42.7371 26.6606 42.7371 26.4742V26.3145H42.7642Z" fill="#00489A"/>
<path d="M44.1445 24.7422H45.0109L45.7419 26.8851L46.4594 24.7422H47.2987L46.2157 27.6438L46.0127 28.1762C45.945 28.3492 45.8773 28.4823 45.8096 28.5755C45.7419 28.6687 45.6742 28.7485 45.593 28.8018C45.5118 28.855 45.4035 28.9082 45.2816 28.9349C45.1598 28.9615 45.0244 28.9881 44.862 28.9881C44.6996 28.9881 44.5506 28.9748 44.4017 28.9349L44.3205 28.3093C44.4423 28.3359 44.5642 28.3492 44.6725 28.3492C44.862 28.3492 44.9974 28.296 45.0921 28.1895C45.1869 28.083 45.2546 27.9366 45.2952 27.7636L44.1445 24.7422Z" fill="#00489A"/>
<path d="M47.9471 24.7439H48.6917V25.1565C48.9624 24.8371 49.2873 24.6641 49.6528 24.6641C49.8559 24.6641 50.0183 24.704 50.1672 24.7839C50.3161 24.8637 50.4244 24.9835 50.5192 25.1432C50.6546 24.9835 50.8035 24.8637 50.9524 24.7839C51.1148 24.704 51.2773 24.6641 51.4533 24.6641C51.6834 24.6641 51.8729 24.704 52.0218 24.7972C52.1707 24.8903 52.2926 25.0234 52.3738 25.1965C52.4279 25.3296 52.455 25.5292 52.455 25.822V27.7653H51.6428V26.035C51.6428 25.7289 51.6157 25.5425 51.5616 25.4494C51.4803 25.3296 51.372 25.2763 51.2096 25.2763C51.1013 25.2763 50.993 25.3029 50.8847 25.3828C50.7899 25.4494 50.7087 25.5558 50.6681 25.6889C50.6275 25.822 50.6004 26.035 50.6004 26.3145V27.7653H49.7882V26.1149C49.7882 25.822 49.7746 25.6224 49.7476 25.5425C49.7205 25.4494 49.6799 25.3961 49.6122 25.3562C49.5445 25.3163 49.4633 25.2896 49.3685 25.2896C49.2467 25.2896 49.1384 25.3163 49.0301 25.3828C48.9353 25.4494 48.8541 25.5425 48.8135 25.6756C48.7729 25.7954 48.7458 26.0084 48.7458 26.3012V27.7653H47.9336V24.7439" fill="#00489A"/>
<path d="M55.2454 26.8203L56.0577 26.9534C55.9494 27.2462 55.7869 27.4592 55.5568 27.6189C55.3266 27.7786 55.0559 27.8452 54.7175 27.8452C54.176 27.8452 53.7834 27.6721 53.5262 27.3261C53.3231 27.0466 53.2148 26.7005 53.2148 26.2746C53.2148 25.7688 53.3502 25.3828 53.621 25.09C53.8917 24.8105 54.2301 24.6641 54.6362 24.6641C55.0965 24.6641 55.462 24.8105 55.7192 25.1033C55.99 25.4094 56.1118 25.862 56.0983 26.4742H54.0542C54.0542 26.7138 54.1218 26.9002 54.2572 27.0333C54.379 27.1664 54.5415 27.2329 54.731 27.2329C54.8664 27.2329 54.9747 27.2063 55.0559 27.1264C55.1371 27.0732 55.2048 26.9667 55.2454 26.8203ZM55.286 26.0084C55.286 25.7688 55.2183 25.5958 55.0965 25.476C54.9747 25.3562 54.8393 25.2896 54.6769 25.2896C54.5009 25.2896 54.352 25.3562 54.2301 25.476C54.1083 25.6091 54.0542 25.7821 54.0542 26.0084H55.286Z" fill="#00489A"/>
<path d="M59.7261 27.7653H58.9139V26.2213C58.9139 25.8886 58.9004 25.6889 58.8598 25.5825C58.8192 25.4893 58.765 25.4094 58.6973 25.3562C58.6296 25.3029 58.5213 25.2763 58.413 25.2763C58.2777 25.2763 58.1423 25.3163 58.034 25.3961C57.9257 25.476 57.8445 25.5691 57.8039 25.7022C57.7633 25.822 57.7497 26.0616 57.7497 26.3944V27.7653H56.9375V24.7439H57.6956V25.1832C57.9663 24.8371 58.3047 24.6641 58.7109 24.6641C58.8868 24.6641 59.0493 24.6907 59.1982 24.7572C59.3471 24.8238 59.4554 24.9036 59.5366 24.9968C59.6178 25.09 59.672 25.2098 59.6991 25.3296C59.7261 25.4494 59.7397 25.6357 59.7397 25.862V27.7653" fill="#00489A"/>
<path d="M62.1369 24.7413V25.3802H61.5819V26.6047C61.5819 26.8576 61.5819 27.004 61.5954 27.044C61.609 27.0839 61.6225 27.1105 61.6631 27.1504C61.7037 27.1771 61.7443 27.1904 61.7985 27.1904C61.8662 27.1904 61.9745 27.1638 62.1234 27.1105L62.1911 27.7228C62.0015 27.8026 61.7849 27.8426 61.5548 27.8426C61.4059 27.8426 61.2705 27.816 61.1622 27.776C61.0404 27.7228 60.9592 27.6562 60.905 27.5897C60.8509 27.5098 60.8103 27.4033 60.7967 27.2835C60.7832 27.1904 60.7697 27.004 60.7697 26.7245V25.4068H60.3906V24.7679H60.7561V24.169L61.5684 23.7031V24.7812H62.1369" fill="#00489A"/>
<path d="M62.5938 26.9135L63.406 26.7937C63.4331 26.9534 63.5143 27.0732 63.6226 27.1397C63.7309 27.2196 63.8798 27.2595 64.0693 27.2595C64.2859 27.2595 64.4348 27.2196 64.5431 27.1397C64.6108 27.0865 64.6514 27.0199 64.6514 26.9268C64.6514 26.8602 64.6379 26.8203 64.5973 26.7804C64.5566 26.7404 64.4619 26.7138 64.3265 26.6739C63.6632 26.5275 63.2435 26.3944 63.0676 26.2746C62.8239 26.1149 62.702 25.8886 62.702 25.5958C62.702 25.3296 62.8103 25.1166 63.0134 24.9303C63.23 24.7572 63.5549 24.6641 64.0016 24.6641C64.4213 24.6641 64.7326 24.7306 64.9492 24.8637C65.1523 24.9968 65.3012 25.1965 65.3824 25.4627L64.6108 25.6091C64.5837 25.4893 64.516 25.3961 64.4213 25.3429C64.3265 25.2763 64.1911 25.2497 64.0287 25.2497C63.8121 25.2497 63.6632 25.2763 63.5684 25.3429C63.5007 25.3828 63.4737 25.436 63.4737 25.5026C63.4737 25.5558 63.5007 25.6091 63.5549 25.649C63.6226 25.7022 63.8798 25.7821 64.313 25.8753C64.7462 25.9684 65.044 26.0882 65.22 26.2347C65.3959 26.3811 65.4772 26.5807 65.4772 26.8336C65.4772 27.1131 65.3553 27.3527 65.1252 27.5524C64.8815 27.752 64.5431 27.8585 64.0828 27.8585C63.6632 27.8585 63.3383 27.7786 63.0946 27.6056C62.8239 27.4326 62.6614 27.2063 62.5938 26.9135Z" fill="#00489A"/>
<path d="M72.0025 27.7598H71.0819L70.7164 26.8148H69.0108L68.6453 27.7598H67.7383L69.3763 23.5938H70.2833L72.0025 27.7598ZM70.4186 26.1227L69.823 24.5787L69.2544 26.1227H70.4186Z" fill="#00489A"/>
<path d="M73.3982 27.7598H72.5859V24.7384H73.344V25.1644C73.4794 24.9647 73.5877 24.8316 73.696 24.765C73.8043 24.6985 73.9126 24.6719 74.0479 24.6719C74.2375 24.6719 74.4134 24.7251 74.5894 24.8183L74.3458 25.5104C74.2104 25.4172 74.075 25.3773 73.9667 25.3773C73.8584 25.3773 73.7501 25.4039 73.6824 25.4705C73.6012 25.537 73.5335 25.6435 73.4929 25.8032C73.4523 25.963 73.4252 26.309 73.4252 26.8148V27.7598" fill="#00489A"/>
<path d="M76.8899 26.8203L77.7022 26.9534C77.5939 27.2462 77.4314 27.4592 77.2013 27.6189C76.9712 27.7786 76.7004 27.8452 76.362 27.8452C75.8205 27.8452 75.4279 27.6721 75.1707 27.3261C74.9677 27.0466 74.8594 26.7005 74.8594 26.2746C74.8594 25.7688 74.9947 25.3828 75.2655 25.09C75.5362 24.8105 75.8747 24.6641 76.2808 24.6641C76.741 24.6641 77.1065 24.8105 77.3637 25.1033C77.6345 25.4094 77.7563 25.862 77.7428 26.4742H75.6987C75.6987 26.7138 75.7664 26.9002 75.9017 27.0333C76.0236 27.1664 76.186 27.2329 76.3755 27.2329C76.5109 27.2329 76.6192 27.2063 76.7004 27.1264C76.7816 27.0732 76.8493 26.9667 76.8899 26.8203ZM76.9306 26.0084C76.9306 25.7688 76.8629 25.5958 76.741 25.476C76.6192 25.3562 76.4838 25.2896 76.3214 25.2896C76.1454 25.2896 75.9965 25.3562 75.8747 25.476C75.7528 25.6091 75.6987 25.7821 75.6987 26.0084H76.9306Z" fill="#00489A"/>
<path d="M79.1794 25.6623L78.4484 25.5292C78.5296 25.2364 78.6785 25.0234 78.8681 24.877C79.0711 24.7306 79.3689 24.6641 79.7751 24.6641C80.1406 24.6641 80.4113 24.704 80.5873 24.7839C80.7633 24.8637 80.8851 24.9702 80.9663 25.1033C81.034 25.2364 81.0746 25.476 81.0746 25.822L81.0611 26.7537C81.0611 27.0199 81.0746 27.2196 81.1017 27.3394C81.1288 27.4592 81.1694 27.6056 81.2506 27.7387H80.4384C80.4113 27.6855 80.3978 27.6056 80.3572 27.5124C80.3436 27.4592 80.3301 27.4326 80.3301 27.4192C80.1947 27.5524 80.0458 27.6588 79.8834 27.7254C79.7209 27.7919 79.5585 27.8319 79.3825 27.8319C79.0711 27.8319 78.8139 27.752 78.6379 27.579C78.4619 27.4059 78.3672 27.193 78.3672 26.9401C78.3672 26.7671 78.4078 26.6206 78.489 26.4875C78.5702 26.3544 78.6921 26.248 78.841 26.1814C78.9899 26.1149 79.2065 26.0483 79.4908 25.9951C79.8698 25.9285 80.127 25.862 80.2759 25.7954V25.7156C80.2759 25.5558 80.2353 25.4494 80.1541 25.3828C80.0729 25.3163 79.924 25.2896 79.7074 25.2896C79.5585 25.2896 79.4502 25.3163 79.3689 25.3695C79.3013 25.4227 79.2336 25.5292 79.1794 25.6623ZM80.2759 26.3145C80.1676 26.3544 80.0052 26.3944 79.7751 26.4343C79.5449 26.4742 79.4096 26.5275 79.3283 26.5807C79.22 26.6606 79.1659 26.7537 79.1659 26.8602C79.1659 26.9667 79.2065 27.0732 79.2877 27.153C79.3689 27.2329 79.4772 27.2728 79.6126 27.2728C79.7615 27.2728 79.8969 27.2196 80.0323 27.1264C80.127 27.0599 80.1947 26.9667 80.2218 26.8602C80.2489 26.7937 80.2489 26.6606 80.2489 26.4742V26.3145H80.2759Z" fill="#00489A"/>
<path d="M18.0585 7.21177H12.5083C12.5083 6.31999 12.4 5.72103 12.1834 5.40159C11.8585 4.94905 10.938 4.72277 9.44892 4.72277C8.00045 4.72277 7.03931 4.85588 6.56551 5.10877C6.09171 5.37497 5.86158 5.94731 5.86158 6.81246C5.86158 7.61107 6.06464 8.13016 6.48429 8.38305C6.78211 8.55609 7.17468 8.66257 7.66202 8.7025L8.7856 8.78236C11.1817 8.94208 12.6843 9.04856 13.2799 9.11511C15.1751 9.30145 16.5559 9.79393 17.4088 10.6058C18.0856 11.2314 18.4782 12.0566 18.6136 13.0682C18.6812 13.6672 18.7219 14.3593 18.7219 15.118C18.7219 16.8749 18.5459 18.166 18.2074 18.9779C17.5847 20.4686 16.204 21.4137 14.038 21.813C13.131 21.9727 11.7502 22.0658 9.88211 22.0658C6.76857 22.0658 4.60263 21.8795 3.38428 21.5201C1.88166 21.0676 0.893451 20.1625 0.406114 18.7916C0.135371 18.0329 0 16.7684 0 14.9849H5.55023C5.55023 15.1845 5.55023 15.3309 5.55023 15.4374C5.55023 16.3824 5.83451 16.9947 6.37599 17.2609C6.75503 17.4472 7.22883 17.5404 7.77032 17.5537H9.81442C10.8568 17.5537 11.5201 17.5005 11.8044 17.394C12.3188 17.1943 12.6437 16.8749 12.8061 16.4357C12.8874 16.1695 12.928 15.8101 12.928 15.3842C12.928 14.4258 12.576 13.8402 11.8585 13.6272C11.5878 13.5474 10.3559 13.4276 8.13582 13.2812C6.36245 13.1614 5.13057 13.0416 4.44018 12.9218C2.6262 12.5891 1.40786 11.8969 0.798692 10.8587C0.270744 9.96696 0 8.62264 0 6.82577C0 5.45483 0.14891 4.3634 0.43319 3.53818C0.71747 2.71295 1.19127 2.08737 1.82751 1.66145C2.76158 1.00925 3.96638 0.609952 5.41486 0.503471C6.6332 0.39699 7.97337 0.34375 9.46246 0.34375C11.7908 0.34375 13.4559 0.476851 14.4441 0.743053C16.8673 1.38194 18.0721 3.16549 18.0721 6.10703C18.1127 6.37323 18.0992 6.7326 18.0585 7.21177Z" fill="#00489A"/>
<path d="M42.4922 22.0809V0.265625H51.1966H52.5638H53.6197C55.1494 0.265625 56.3136 0.385416 57.1123 0.638308C58.9398 1.19733 60.1717 2.35531 60.7944 4.09894C61.1193 5.01733 61.2817 6.38828 61.2817 8.23838C61.2817 10.4479 61.1057 12.0451 60.7402 13.0167C60.0228 14.9334 58.5607 16.0381 56.3407 16.3176C56.0835 16.3575 54.9734 16.3975 53.0105 16.4241L52.0223 16.4507H48.4621V22.0809H42.4922ZM48.4621 11.3796H52.1848C53.3625 11.3396 54.08 11.2465 54.3372 11.1134C54.6891 10.927 54.9328 10.541 55.0411 9.96869C55.1088 9.5827 55.1494 9.02368 55.1494 8.265C55.1494 7.3466 55.0817 6.65448 54.9193 6.21524C54.7027 5.58967 54.1883 5.20368 53.376 5.07057C53.2136 5.04395 52.8345 5.04395 52.2118 5.04395H48.435V11.3796H48.4621Z" fill="#00489A"/>
<path d="M74.0358 18.2985H66.0489L64.9794 22.0653H58.793L65.4668 0.25H74.469L81.224 22.0653H75.1729L74.0358 18.2985ZM72.8445 14.0526L70.0423 4.60241L67.3214 14.0526H72.8445Z" fill="#00489A"/>
<path d="M34.2477 3.32811C36.7114 3.32811 38.9044 4.44616 40.3529 6.18978L41.6389 3.47452C39.6219 1.6111 36.8874 0.453125 33.8686 0.453125C29.1577 0.453125 25.1372 3.24825 23.4856 7.20135H20.9813L19.4922 10.3292H22.7276C22.7005 10.622 22.687 10.9149 22.687 11.2077C22.687 11.5671 22.714 11.9131 22.7411 12.2725H21.1166L19.6276 15.4004H23.5533C25.2455 19.2603 29.2254 21.9623 33.8551 21.9623C36.1835 21.9623 38.3494 21.2701 40.1499 20.0988V16.2655C38.7014 17.8894 36.5896 18.9009 34.2341 18.9009C31.4861 18.9009 29.0629 17.5034 27.6415 15.3871H35.8721L37.3477 12.2592H26.4503C26.3961 11.8865 26.3555 11.5005 26.3555 11.1145C26.3555 10.8483 26.3691 10.5821 26.3961 10.3292H38.2817L39.7708 7.20135H27.4385C28.8057 4.88539 31.3372 3.32811 34.2477 3.32811Z" fill="#FDC300"/>
<path d="M34.25 3.4207C36.5919 3.4207 38.7985 4.44557 40.2875 6.25575L40.3823 6.37554L40.45 6.24244L41.736 3.52718L41.7631 3.46063L41.7089 3.40739C39.5971 1.43749 36.8085 0.359375 33.8709 0.359375C31.5696 0.359375 29.3631 1.02488 27.4814 2.27603C25.6403 3.48725 24.2325 5.19094 23.4067 7.17415L23.5015 7.12091H20.9836H20.9159L20.8888 7.17415L19.3997 10.302L19.332 10.4351H19.4809H22.7163L22.6216 10.3286C22.5945 10.6481 22.5809 10.9409 22.5809 11.2071C22.5809 11.5532 22.5945 11.9125 22.6351 12.2852L22.7299 12.1787H21.1054H21.0512L21.0242 12.232L19.5351 15.3599L19.4674 15.493H19.6163H23.5421L23.4473 15.4397C25.2207 19.4594 29.2954 22.0548 33.8439 22.0548C36.1181 22.0548 38.3111 21.4026 40.1928 20.1781L40.2334 20.1515V20.0983V16.2649V16.0121L40.0709 16.1984C38.5954 17.8489 36.4701 18.8072 34.2364 18.8072C31.6102 18.8072 29.1735 17.5161 27.7251 15.3466L27.6438 15.493H35.8744H35.9286L35.9556 15.4397L37.4312 12.3118L37.4989 12.1787H37.3771H26.4661L26.5609 12.2586C26.5067 11.8859 26.4796 11.4999 26.4796 11.1139C26.4796 10.861 26.4932 10.5948 26.5203 10.342L26.4255 10.4218H38.3111H38.3788L38.4059 10.3686L39.8814 7.2407L39.9491 7.1076H39.8002H27.4408L27.522 7.25401C28.9163 4.88481 31.4884 3.4207 34.25 3.4207ZM27.4408 7.29394H39.7867L39.7054 7.16084L38.2164 10.2887L38.2976 10.2355H26.412H26.3307L26.3172 10.3153C26.2901 10.5815 26.2766 10.8477 26.2766 11.1139C26.2766 11.4999 26.3037 11.8859 26.3713 12.2852L26.3849 12.3651H26.4661H37.3771L37.2958 12.232L35.8203 15.3599L35.9015 15.3066H27.6709H27.4949L27.5897 15.453C29.0652 17.6758 31.5696 19.0068 34.25 19.0068C36.5377 19.0068 38.7172 18.0352 40.2334 16.3448L40.0709 16.2783V20.1116L40.1116 20.0317C38.2705 21.2429 36.1046 21.8818 33.8709 21.8818C29.4037 21.8818 25.3967 19.3263 23.6504 15.3732L23.6233 15.3199H23.5692H19.6434L19.7381 15.453L21.2137 12.3252L21.1325 12.3784H22.7569H22.8652L22.8517 12.2719C22.8111 11.9259 22.7975 11.5665 22.7975 11.2204C22.7975 10.9542 22.8111 10.6747 22.8382 10.3553L22.8517 10.2488H22.7434H19.4945L19.5757 10.3819L21.0648 7.25401L20.9836 7.30725H23.4879H23.5556L23.5827 7.25401C24.3949 5.29742 25.7892 3.63366 27.5897 2.43575C29.4443 1.21122 31.6102 0.559027 33.8709 0.559027C36.7543 0.559027 39.5024 1.62383 41.5871 3.5538L41.56 3.44732L40.274 6.16258L40.4364 6.13596C38.9203 4.29916 36.6596 3.23436 34.25 3.23436C31.4207 3.23436 28.781 4.7384 27.3596 7.16084L27.2783 7.29394H27.4408Z" fill="#00489A"/>
</g>
<defs>
<clipPath id="clip0_1_10851">
<rect width="81.25" height="28.75" fill="white" transform="translate(0 0.25)"/>
</clipPath>
</defs>
</svg>
