<svg  viewBox="0 0 82 31" fill="none" xmlns="http://www.w3.org/2000/svg">
<path d="M42.4084 9.96565C42.3616 14.1448 45.6958 16.4768 48.2074 17.8634C50.7878 19.2859 51.6546 20.1983 51.6443 21.4706C51.6251 23.4175 49.586 24.2769 47.6779 24.3103C44.3489 24.3687 42.4132 23.292 40.8744 22.4776L39.6752 28.8352C41.2191 29.6412 44.0779 30.3442 47.0424 30.375C54.0012 30.375 58.5538 26.4833 58.5784 20.4494C58.6057 12.7915 49.2291 12.3677 49.2932 8.94482C49.3153 7.90693 50.1894 6.79937 52.1049 6.51777C53.053 6.37551 55.6703 6.26664 58.6377 7.81476L59.8023 1.66365C58.2065 1.00535 56.1556 0.375 53.6021 0.375C47.0523 0.375 42.4456 4.31969 42.4084 9.96565ZM70.9934 0.904831C69.7227 0.904831 68.6519 1.74457 68.174 3.03322L58.2338 29.9232H65.1874L66.5712 25.5906H75.0684L75.8711 29.9232H82L76.6517 0.904831H70.9934ZM71.9662 8.74378L73.973 19.6405H68.477L71.9662 8.74378ZM33.9775 0.905193L28.4963 29.9228H35.1226L40.6012 0.904469H33.9775V0.905193ZM24.1749 0.904469L17.278 20.6559L14.4881 3.86208C14.1607 1.98735 12.8679 0.904831 11.4323 0.904831H0.157914L0 1.74748C2.31458 2.3165 4.94434 3.23427 6.53758 4.21627C7.51261 4.81614 7.79064 5.34052 8.11095 6.76599L13.3951 29.9232H20.3975L31.1331 0.904831H24.1749" fill="url(#paint0_linear_811_1932)"/>
<defs>
<linearGradient id="paint0_linear_811_1932" x1="37.6987" y1="30.9768" x2="38.6823" y2="0.173294" gradientUnits="userSpaceOnUse">
<stop stop-color="#222357"/>
<stop offset="1" stop-color="#254AA5"/>
</linearGradient>
</defs>
</svg>
