<svg viewBox="0 0 54 54" fill="none" xmlns="http://www.w3.org/2000/svg">
<path opacity="0.9" d="M47.48 27V48.6C47.48 50.8092 45.6892 52.6 43.48 52.6H10.52C8.31089 52.6 6.52002 50.8092 6.52002 48.6V27M27 52.6V14.2M27 14.2H15.48C13.7826 14.2 12.1548 13.5257 10.9545 12.3255C9.75431 11.1253 9.08002 9.49741 9.08002 7.80002C9.08002 6.10264 9.75431 4.47477 10.9545 3.27454C12.1548 2.07431 13.7826 1.40002 15.48 1.40002C24.44 1.40002 27 14.2 27 14.2ZM27 14.2H38.52C40.2174 14.2 41.8453 13.5257 43.0455 12.3255C44.2457 11.1253 44.92 9.49741 44.92 7.80002C44.92 6.10264 44.2457 4.47477 43.0455 3.27454C41.8453 2.07431 40.2174 1.40002 38.52 1.40002C29.56 1.40002 27 14.2 27 14.2ZM5.40003 27H48.6C50.8092 27 52.6 25.2092 52.6 23V18.2C52.6 15.9909 50.8092 14.2 48.6 14.2H5.40002C3.19089 14.2 1.40002 15.9909 1.40002 18.2V23C1.40002 25.2092 3.19089 27 5.40003 27Z" stroke="white" stroke-width="2" stroke-linecap="round" stroke-linejoin="round"/>
</svg>
