<svg width="123" height="120" viewBox="0 0 123 120" fill="none" xmlns="http://www.w3.org/2000/svg">
<path d="M105.477 37.3656C103.687 37.0761 102.069 37.1288 100.595 37.4709C97.6737 33.2336 93.9233 30.4571 89.5808 29.7728C86.2384 29.2464 82.8565 29.9833 79.6061 31.773C76.8032 27.4962 73.224 24.746 69.0657 24.088C64.5521 23.3774 59.9464 25.2066 55.6565 28.9832C53.2879 26.7067 50.5771 25.2329 47.5636 24.746C43.7606 24.1407 39.905 25.1934 36.2599 27.5489C34.8387 26.1935 33.0359 25.2987 30.7594 24.9302C18.1134 22.9169 5.05953 38.9052 1.61183 60.6442C-1.83587 82.3699 5.61221 101.622 18.2582 103.622C19.9162 103.885 21.4295 103.819 22.8113 103.464C25.7457 107.714 29.4829 110.478 33.8386 111.175C36.6415 111.623 39.4839 111.162 42.2341 109.952C45.195 115.32 49.169 118.794 53.9063 119.545C59.0121 120.36 64.2363 117.9 68.9867 113.057C71.0527 114.715 73.3424 115.794 75.8558 116.189C79.7641 116.807 83.725 115.689 87.449 113.189C88.8834 114.689 90.6993 115.689 92.989 116.044C105.635 118.058 118.689 102.069 122.137 80.3303C125.584 58.6308 118.123 39.379 105.477 37.3656Z" fill="#070E14"/>
<path d="M63.6953 27.2298C63.7743 27.1245 63.6032 27.3614 63.7612 27.2035C63.8664 27.0982 64.0506 26.8482 64.2743 26.4797C64.7218 25.7428 65.3139 24.4664 65.6166 22.7031C65.6956 22.2688 65.7482 21.7951 65.8008 21.295C65.8271 21.045 65.8271 20.795 65.8403 20.5318C65.8534 20.2028 65.8535 19.8738 65.8666 19.5317C65.8929 17.9263 66.0508 16.2156 66.3798 14.5049C66.6956 12.7811 67.1957 11.0046 67.9458 9.2544C68.6958 7.50423 69.6828 5.76723 71.0908 4.20129C72.4725 2.66166 74.3411 1.30627 76.4992 0.700945C78.631 0.0693054 80.8812 0.266699 82.5919 0.87202C84.6974 1.59577 86.0922 2.8064 87.1713 4.18811C88.224 5.56983 88.8425 7.09629 89.0662 8.57012C89.3031 10.0439 89.1451 11.452 88.6977 12.5968C88.2635 13.7548 87.5924 14.597 86.9608 15.1629C86.3423 15.7419 85.7764 16.0445 85.3948 16.2551C85.0132 16.4393 84.8026 16.5314 84.8026 16.5314L83.8947 14.8076C83.8947 14.8076 84.0394 14.7023 84.3026 14.5181C84.5394 14.3075 84.9079 14.018 85.2369 13.5574C85.5659 13.11 85.8685 12.5179 85.987 11.7941C86.1054 11.0704 86.0396 10.2282 85.7106 9.37283C85.3948 8.51748 84.8158 7.64899 84.0526 6.97787C83.6709 6.63573 83.2367 6.35939 82.7761 6.13568C82.5524 6.03041 82.3155 5.93828 82.0787 5.87248C81.8287 5.79353 81.5918 5.75406 81.4471 5.7409C79.1047 5.42509 77.5256 6.39886 76.3413 8.33326C75.1833 10.2808 74.6832 12.9521 74.6832 15.426C74.6701 16.6762 74.7885 17.8868 74.9727 19.0185L75.0517 19.5317L75.0649 19.5975C75.0649 19.5712 75.078 19.6896 75.0649 19.558V19.5975L75.078 19.7554L75.1043 20.0581C75.1438 20.466 75.1964 20.8608 75.2096 21.2555C75.2491 22.0451 75.2623 22.8215 75.2359 23.5716C75.1438 26.585 74.4332 29.151 73.6963 30.9275C73.3278 31.8224 72.9594 32.5198 72.6567 33.033C72.3935 33.4936 71.9725 34.0462 72.0514 33.941L63.6953 27.2298Z" fill="#070E14"/>
<path d="M58.9791 52.7004C47.0437 50.0291 38.2534 46.1076 28.5156 38.5938C28.5156 38.5938 37.3191 70.0836 58.9791 52.7004Z" fill="#FA4A00"/>
<path d="M70.125 54.4663C82.2972 55.6243 91.864 54.6242 103.457 50.4922C103.457 50.4922 85.3238 77.7185 70.125 54.4663Z" fill="#FA4A00"/>
<path d="M66.7672 77.7048L62.7536 64.9141L54.9766 75.823L66.7672 77.7048Z" fill="#FA4A00"/>
<path d="M93.1505 79.6745C89.5448 84.9908 86.0445 90.1623 82.6495 95.1891C81.2283 94.4391 79.7808 93.5837 78.3201 92.5968C76.3594 94.7417 74.425 96.8077 72.5432 98.7948C71.3852 97.5446 70.2141 96.2024 69.0297 94.7681C66.8848 96.6235 64.8056 98.3737 62.766 99.9922C61.2132 98.2947 59.6473 96.4393 58.055 94.4391C55.9232 95.8471 53.8572 97.1235 51.857 98.2552C50.4358 96.0708 48.9883 93.7679 47.5408 91.3467C45.9617 92.3468 44.4353 93.2547 42.9483 94.0838C41.7771 91.6098 40.5796 89.0438 39.3822 86.3988C37.6846 86.8857 36.0397 87.2542 34.4606 87.5173C32.7894 81.6878 31.0655 75.6873 29.2891 69.5156C31.1313 73.4107 32.9868 77.1479 34.8422 80.7009C36.474 80.4377 38.1583 80.0693 39.9085 79.5824C41.1455 82.2405 42.3824 84.8066 43.5931 87.2805C45.1195 86.4515 46.6855 85.5435 48.3041 84.5565C49.8042 86.991 51.3043 89.2938 52.7782 91.4783C54.831 90.3466 56.9496 89.0833 59.1472 87.6884C60.7921 89.6886 62.4107 91.5572 64.0161 93.2547C66.0952 91.6362 68.227 89.8992 70.4246 88.0569C71.6616 89.5044 72.8722 90.8466 74.0565 92.1099C75.9778 90.136 77.9516 88.07 79.9518 85.9251C81.4651 86.9252 82.9521 87.7937 84.4128 88.5569C87.2683 85.7803 90.1896 82.8064 93.1505 79.6745Z" fill="#FA4A00"/>
</svg>
